<?xml version="1.0" encoding="UTF-8" standalone="no"?>
<svg
   xmlns:dc="http://purl.org/dc/elements/1.1/"
   xmlns:cc="http://creativecommons.org/ns#"
   xmlns:rdf="http://www.w3.org/1999/02/22-rdf-syntax-ns#"
   xmlns:svg="http://www.w3.org/2000/svg"
   xmlns="http://www.w3.org/2000/svg"
   viewBox="0 0 571.86236 559.09027"
   height="559.09027"
   width="571.86237"
   xml:space="preserve"
   id="svg2"
   version="1.1"><metadata
     id="metadata8"><rdf:RDF><cc:Work
         rdf:about=""><dc:format>image/svg+xml</dc:format><dc:type
           rdf:resource="http://purl.org/dc/dcmitype/StillImage" /><dc:title></dc:title></cc:Work></rdf:RDF></metadata><defs
     id="defs6"><clipPath
       id="clipPath18"
       clipPathUnits="userSpaceOnUse"><path
         id="path16"
         d="M 0,644.078 H 666.824 V 0 H 0 Z" /></clipPath><clipPath
       id="clipPath194"
       clipPathUnits="userSpaceOnUse"><path
         id="path192"
         d="M 181.285,521.305 H 544.479 V 191.216 H 181.285 Z" /></clipPath><clipPath
       id="clipPath214"
       clipPathUnits="userSpaceOnUse"><path
         id="path212"
         d="m 463.247,477.613 c -6.553,-9.734 -17.481,-19.465 -44.689,-12.91 v 0 c -27.206,6.552 -64.349,5.958 -83.415,-34.558 v 0 c 0,0 -162.267,-53.029 -153.526,-238.929 v 0 c 0,0 3.18,178.152 158.096,223.436 v 0 c 0,0 13.706,-21.253 52.233,-18.671 v 0 c 38.531,2.582 51.043,43.097 58.59,53.823 v 0 c 7.549,10.725 19.86,16.485 29.99,10.527 v 0 c 10.13,-5.958 63.953,-36.147 63.953,-36.147 v 0 l -55.811,37.142 c 0,0 31.978,-1.984 69.911,-24.228 v 0 c 0,0 -68.714,67.92 -135.053,84.207 v 0 c 0,0 46.276,-33.96 39.721,-43.692" /></clipPath><clipPath
       id="clipPath298"
       clipPathUnits="userSpaceOnUse"><path
         id="path296"
         d="M 0,644.078 H 666.824 V 0 H 0 Z" /></clipPath><clipPath
       id="clipPath518"
       clipPathUnits="userSpaceOnUse"><path
         id="path516"
         d="m 178.243,139.973 c 0,0 63.591,53.329 3.047,68.373 v 0 c 0,0 -56.077,-3.423 -3.047,-68.373" /></clipPath><clipPath
       id="clipPath574"
       clipPathUnits="userSpaceOnUse"><path
         id="path572"
         d="M 0,644.078 H 666.824 V 0 H 0 Z" /></clipPath><clipPath
       id="clipPath654"
       clipPathUnits="userSpaceOnUse"><path
         id="path652"
         d="M 335.316,478.75 H 452.517 V 386.821 H 335.316 Z" /></clipPath></defs><g
     transform="matrix(1.3333333,0,0,-1.3333333,-172.90973,729.90149)"
     id="g10"><g
       id="g12"><g
         clip-path="url(#clipPath18)"
         id="g14"><g
           transform="translate(257.3179,22.8896)"
           id="g20" /><g
           transform="translate(272.9395,26.3408)"
           id="g28" /><g
           transform="translate(281.1074,22.6152)"
           id="g34" /><g
           transform="translate(229.8193,25.2773)"
           id="g124" /><g
           transform="translate(469.6123,149.1084)"
           id="g132"><path
             id="path134"
             style="fill:#e6e7e8;fill-opacity:1;fill-rule:nonzero;stroke:none"
             d="m 0,0 c 0,-11.598 -56.18,-21 -125.482,-21 -69.301,0 -125.481,9.402 -125.481,21 0,11.599 56.18,21 125.481,21 C -56.18,21 0,11.599 0,0" /></g><g
           transform="translate(356.5708,412.8057)"
           id="g136"><path
             id="path138"
             style="fill:#d05124;fill-opacity:1;fill-rule:nonzero;stroke:none"
             d="m 0,0 -14.912,-19.123 -11.508,0.752 -4.718,-3.584 5.851,2.832 8.583,-1.795 -7.546,-1.037 -4.622,-2.547 5.942,1.604 6.791,0.377 -5.848,-2.62 -2.829,-3.07 3.608,2.717 7.004,1.98 4.881,-3.111 -0.282,-2.547 1.13,3.043 -5.022,5.094 L 0,-6.107 Z" /></g><g
           transform="translate(368.5322,405.5908)"
           id="g140"><path
             id="path142"
             style="fill:#d05124;fill-opacity:1;fill-rule:nonzero;stroke:none"
             d="m 0,0 -14.911,-19.125 -11.508,0.752 -4.718,-3.584 5.849,2.832 8.583,-1.793 -7.545,-1.039 -4.623,-2.547 5.944,1.604 6.791,0.377 -5.848,-2.62 -2.83,-3.068 3.608,2.715 7.004,1.982 4.882,-3.111 -0.284,-2.547 1.132,3.041 -5.023,5.094 L 0,-6.109 Z" /></g><g
           transform="translate(413.0439,537.4868)"
           id="g144"><path
             id="path146"
             style="fill:#470137;fill-opacity:1;fill-rule:nonzero;stroke:none"
             d="m 0,0 c 0,0 16.789,10.529 38.676,-1.243 0,0 -22.83,5.394 -33.016,-3.662 z" /></g><g
           transform="translate(418.6045,533.4302)"
           id="g148"><path
             id="path150"
             style="fill:#470137;fill-opacity:1;fill-rule:nonzero;stroke:none"
             d="m 0,0 c 0,0 18.223,7.798 38.016,-7.229 0,0 -21.715,8.872 -33.186,1.505 z" /></g><g
           transform="translate(421.3408,526.4497)"
           id="g152"><path
             id="path154"
             style="fill:#470137;fill-opacity:1;fill-rule:nonzero;stroke:none"
             d="m 0,0 c 0,0 18.221,7.796 38.014,-7.229 0,0 -21.715,8.871 -33.186,1.504 z" /></g><g
           transform="translate(497.8428,363.4893)"
           id="g156"><path
             id="path158"
             style="fill:#470137;fill-opacity:1;fill-rule:nonzero;stroke:none"
             d="m 0,0 c 0,0 18.057,8.17 20.346,32.914 0,0 -8.125,-22.002 -21.303,-25.484 z" /></g><g
           transform="translate(497.5361,370.3682)"
           id="g160"><path
             id="path162"
             style="fill:#470137;fill-opacity:1;fill-rule:nonzero;stroke:none"
             d="m 0,0 c 0,0 16.572,10.871 14.994,35.674 0,0 -4.613,-23 -17.094,-28.487 z" /></g><g
           transform="translate(493.2334,376.5049)"
           id="g164"><path
             id="path166"
             style="fill:#470137;fill-opacity:1;fill-rule:nonzero;stroke:none"
             d="m 0,0 c 0,0 16.57,10.873 14.99,35.674 0,0 -4.611,-22.998 -17.092,-28.483 z" /></g><g
           transform="translate(181.29,208.3467)"
           id="g168"><path
             id="path170"
             style="fill:#f37521;fill-opacity:1;fill-rule:nonzero;stroke:none"
             d="m 0,0 c 0,0 -56.077,-3.424 -3.047,-68.373 0,0 63.591,53.328 3.047,68.373" /></g><g
           transform="translate(442.1943,453.9761)"
           id="g172"><path
             id="path174"
             style="fill:#f37521;fill-opacity:1;fill-rule:nonzero;stroke:none"
             d="m 0,0 c 0,0 -10.723,7.747 1.789,32.773 12.512,25.022 5.959,54.518 -91.162,60.178 -97.122,5.659 -223.139,-38.73 -223.139,-38.73 0,0 159.584,12.315 175.869,-2.384 16.287,-14.698 -8.342,-26.216 -8.342,-26.216 0,0 59.423,16.23 61.57,-31.778 2.145,-48.008 63.556,-8.737 63.556,-8.737 z" /></g><g
           transform="translate(352.8218,546.9272)"
           id="g176"><path
             id="path178"
             style="fill:#470137;fill-opacity:1;fill-rule:nonzero;stroke:none"
             d="m 0,0 c -77.904,4.541 -174.381,-23.117 -209.519,-34.242 -0.039,-1.278 -0.034,-2.451 0.015,-3.529 10.491,0.698 26.118,1.649 43.631,2.437 21.483,8.245 45.698,16.73 46.904,13.552 2.186,-5.758 -0.797,-10.924 23.237,-2.583 24.033,8.344 48.263,15.096 47.866,9.932 -0.397,-5.166 -21.648,-11.915 -14.299,-12.711 7.347,-0.795 25.221,8.342 45.083,12.512 19.862,4.172 34.958,1.391 25.82,-2.978 -9.136,-4.372 -33.963,-15.292 -24.23,-18.271 9.73,-2.98 34.357,12.513 51.038,14.099 16.686,1.588 1.789,-13.704 -14.496,-18.271 -16.283,-4.57 -19.464,-25.222 1.192,-15.69 20.658,9.533 28.002,23.037 32.97,17.873 4.963,-5.16 -12.316,-7.944 -22.048,-18.47 -9.731,-10.524 2.586,-12.116 12.712,-5.361 10.131,6.753 23.239,4.964 18.272,0.992 -4.965,-3.972 -34.211,-10.824 -23.781,-17.079 10.425,-6.258 33.963,-3.726 37.388,-9.684 2.229,-3.878 4.784,-5.258 8.797,-1.502 -1.988,4.531 -3.097,13.382 4.61,28.796 C 103.673,-35.156 97.121,-5.661 0,0" /></g><g
           transform="translate(507.3662,458.061)"
           id="g180"><path
             id="path182"
             style="fill:#570217;fill-opacity:1;fill-rule:nonzero;stroke:none"
             d="M 0,0 C 0,0 14.209,-6.826 36.188,-33.359 L -26.443,5.65 -14.924,10.217 -1.092,8.034 Z" /></g><g
           transform="translate(558.5791,437.0972)"
           id="g184"><path
             id="path186"
             style="fill:#f37521;fill-opacity:1;fill-rule:nonzero;stroke:none"
             d="m 0,0 c 0,0 -68.715,67.921 -135.053,84.208 0,0 46.276,-33.959 39.721,-43.692 -6.553,-9.735 -17.481,-19.465 -44.689,-12.91 -27.206,6.552 -64.349,5.958 -83.416,-34.558 0,0 -162.265,-53.029 -153.524,-238.929 0,0 3.179,178.152 158.095,223.435 0,0 13.706,-21.252 52.233,-18.67 38.531,2.582 51.043,43.096 58.59,53.823 7.549,10.725 19.859,16.485 29.99,10.527 10.129,-5.958 63.953,-36.147 63.953,-36.147 l -55.81,37.142 c 0,0 31.976,-1.984 69.91,-24.229" /></g><g
           id="g188"><g
             id="g190" /><g
             id="g206"><g
               id="g204"
               clip-path="url(#clipPath194)"><g
                 id="g198"
                 transform="translate(489.4209,461.2642)"><path
                   id="path196"
                   style="fill:#f37521;fill-opacity:1;fill-rule:nonzero;stroke:none"
                   d="m 0,0 c -4.945,2.809 -8.893,5.069 -10.979,6.296 -10.128,5.958 -22.443,0.198 -29.99,-10.526 -7.549,-10.725 -20.06,-51.242 -58.59,-53.824 -38.529,-2.58 -52.233,18.67 -52.233,18.67 -119.532,-34.938 -148.726,-148.979 -155.827,-199.254 -0.6,-10.028 -0.699,-20.483 -0.184,-31.41 0,0 3.179,178.152 158.095,223.435 0,0 13.706,-21.252 52.233,-18.67 38.532,2.582 51.043,43.096 58.59,53.823 7.549,10.725 19.86,16.485 29.99,10.527 C 1.234,-6.891 55.059,-37.08 55.059,-37.08 L -0.752,0.062 c 0,0 0.264,-0.019 0.752,-0.062" /></g><g
                 id="g202"
                 transform="translate(461.6377,485.8799)"><path
                   id="path200"
                   style="fill:#f37521;fill-opacity:1;fill-rule:nonzero;stroke:none"
                   d="m 0,0 c 1.934,6.842 -14.412,21.915 -26.846,32.18 -3.754,1.23 -7.513,2.324 -11.265,3.245 0,0 29.634,-21.748 38.111,-35.425" /></g></g></g></g></g></g><g
       id="g208"><g
         clip-path="url(#clipPath214)"
         id="g210"><g
           transform="translate(332.5239,425.7939)"
           id="g216"><path
             id="path218"
             style="fill:#470137;fill-opacity:1;fill-rule:nonzero;stroke:none"
             d="m 0,0 c 0,-4.619 -3.747,-8.361 -8.364,-8.361 -4.62,0 -8.362,3.742 -8.362,8.361 0,4.617 3.742,8.364 8.362,8.364 C -3.747,8.364 0,4.617 0,0" /></g><g
           transform="translate(311.6685,418.8447)"
           id="g220"><path
             id="path222"
             style="fill:#470137;fill-opacity:1;fill-rule:nonzero;stroke:none"
             d="m 0,0 c 0,-4.619 -3.745,-8.363 -8.361,-8.363 -4.622,0 -8.365,3.744 -8.365,8.363 0,4.617 3.743,8.361 8.365,8.361 C -3.745,8.361 0,4.617 0,0" /></g><g
           transform="translate(291.4102,404.9912)"
           id="g224"><path
             id="path226"
             style="fill:#470137;fill-opacity:1;fill-rule:nonzero;stroke:none"
             d="m 0,0 c 0,-4.619 -3.744,-8.361 -8.361,-8.361 -4.621,0 -8.365,3.742 -8.365,8.361 0,4.617 3.744,8.361 8.365,8.361 C -3.744,8.361 0,4.617 0,0" /></g><g
           transform="translate(271.9453,393.3525)"
           id="g228"><path
             id="path230"
             style="fill:#470137;fill-opacity:1;fill-rule:nonzero;stroke:none"
             d="m 0,0 c 0,-4.619 -3.744,-8.363 -8.362,-8.363 -4.62,0 -8.363,3.744 -8.363,8.363 0,4.617 3.743,8.361 8.363,8.361 C -3.744,8.361 0,4.617 0,0" /></g><g
           transform="translate(257.8433,380.9873)"
           id="g232"><path
             id="path234"
             style="fill:#470137;fill-opacity:1;fill-rule:nonzero;stroke:none"
             d="m 0,0 c 0,-4.617 -3.744,-8.361 -8.361,-8.361 -4.621,0 -8.365,3.744 -8.365,8.361 0,4.617 3.744,8.363 8.365,8.363 C -3.744,8.363 0,4.617 0,0" /></g><g
           transform="translate(242.1543,364.2842)"
           id="g236"><path
             id="path238"
             style="fill:#470137;fill-opacity:1;fill-rule:nonzero;stroke:none"
             d="m 0,0 c 0,-4.617 -3.745,-8.363 -8.363,-8.363 -4.62,0 -8.362,3.746 -8.362,8.363 0,4.617 3.742,8.361 8.362,8.361 C -3.745,8.361 0,4.617 0,0" /></g><g
           transform="translate(229.0454,347.6221)"
           id="g240"><path
             id="path242"
             style="fill:#470137;fill-opacity:1;fill-rule:nonzero;stroke:none"
             d="m 0,0 c 0,-4.619 -3.744,-8.363 -8.361,-8.363 -4.621,0 -8.364,3.744 -8.364,8.363 0,4.619 3.743,8.363 8.364,8.363 C -3.744,8.363 0,4.619 0,0" /></g><g
           transform="translate(217.1294,330.8975)"
           id="g244"><path
             id="path246"
             style="fill:#470137;fill-opacity:1;fill-rule:nonzero;stroke:none"
             d="m 0,0 c 0,-4.621 -3.745,-8.361 -8.363,-8.361 -4.618,0 -8.363,3.74 -8.363,8.361 0,4.617 3.745,8.361 8.363,8.361 C -3.745,8.361 0,4.617 0,0" /></g><g
           transform="translate(206.7998,310.1377)"
           id="g248"><path
             id="path250"
             style="fill:#470137;fill-opacity:1;fill-rule:nonzero;stroke:none"
             d="m 0,0 c 0,-4.617 -3.745,-8.363 -8.361,-8.363 -4.621,0 -8.365,3.746 -8.365,8.363 0,4.617 3.744,8.361 8.365,8.361 C -3.745,8.361 0,4.617 0,0" /></g><g
           transform="translate(197.0698,290.6729)"
           id="g252"><path
             id="path254"
             style="fill:#470137;fill-opacity:1;fill-rule:nonzero;stroke:none"
             d="m 0,0 c 0,-4.617 -3.745,-8.361 -8.364,-8.361 -4.619,0 -8.362,3.744 -8.362,8.361 0,4.617 3.743,8.361 8.362,8.361 C -3.745,8.361 0,4.617 0,0" /></g><g
           transform="translate(191.937,271.5557)"
           id="g256"><path
             id="path258"
             style="fill:#470137;fill-opacity:1;fill-rule:nonzero;stroke:none"
             d="m 0,0 c 0,-4.615 -3.744,-8.361 -8.361,-8.361 -4.62,0 -8.363,3.746 -8.363,8.361 0,4.621 3.743,8.365 8.363,8.365 C -3.744,8.365 0,4.621 0,0" /></g><g
           transform="translate(187.4683,251.8193)"
           id="g260"><path
             id="path262"
             style="fill:#470137;fill-opacity:1;fill-rule:nonzero;stroke:none"
             d="m 0,0 c 0,-4.615 -3.745,-8.361 -8.362,-8.361 -4.62,0 -8.364,3.746 -8.364,8.361 0,4.621 3.744,8.363 8.364,8.363 C -3.745,8.363 0,4.621 0,0" /></g><g
           transform="translate(184.3394,231.5615)"
           id="g264"><path
             id="path266"
             style="fill:#470137;fill-opacity:1;fill-rule:nonzero;stroke:none"
             d="m 0,0 c 0,-4.617 -3.744,-8.361 -8.362,-8.361 -4.62,0 -8.363,3.744 -8.363,8.361 0,4.619 3.743,8.365 8.363,8.365 C -3.744,8.365 0,4.619 0,0" /></g><g
           transform="translate(182.7017,214.8369)"
           id="g268"><path
             id="path270"
             style="fill:#470137;fill-opacity:1;fill-rule:nonzero;stroke:none"
             d="m 0,0 c 0,-4.615 -3.745,-8.361 -8.361,-8.361 -4.621,0 -8.365,3.746 -8.365,8.361 0,4.617 3.744,8.363 8.365,8.363 C -3.745,8.363 0,4.617 0,0" /></g><g
           transform="translate(327.168,441.7456)"
           id="g272"><path
             id="path274"
             style="fill:#470137;fill-opacity:1;fill-rule:nonzero;stroke:none"
             d="m 0,0 c 0,0 16.385,-24.131 19.065,-13.405 2.681,10.724 -6.852,27.707 -6.852,27.707 z" /></g><g
           transform="translate(340.2754,458.6274)"
           id="g276"><path
             id="path278"
             style="fill:#470137;fill-opacity:1;fill-rule:nonzero;stroke:none"
             d="m 0,0 c 0,0 16.685,-26.018 23.04,-18.865 6.354,7.149 -11.324,18.668 -3.18,16.285 8.143,-2.384 16.086,-18.936 22.444,-15.228 6.355,3.708 -3.377,7.678 -5.364,17.808 -1.984,10.13 8.743,12.116 13.108,2.583 4.369,-9.532 5.166,-22.109 14.896,-20.391 9.733,1.72 9.534,9.567 4.768,18.402 -4.768,8.839 -0.197,11.719 5.66,9.436 5.857,-2.283 1.49,-13.602 6.057,-16.782 4.566,-3.181 11.322,-4.269 12.513,3.674 1.192,7.944 -6.752,9.139 0,10.724 6.752,1.589 4.172,-10.724 8.938,-9.035 4.767,1.686 2.978,6.752 3.375,9.533 0.398,2.78 2.086,0.299 6.058,-1.986 3.975,-2.286 12.215,-0.595 8.145,7.05 -4.072,7.646 10.426,23.536 -17.975,22.938 C 74.081,35.553 24.031,28.601 13.902,24.231 3.772,19.862 -15.093,9.5 -16.087,8.028 -17.081,6.555 0,0 0,0" /></g><g
           transform="translate(559.585,448.9565)"
           id="g280"><path
             id="path282"
             style="fill:#470137;fill-opacity:1;fill-rule:nonzero;stroke:none"
             d="m 0,0 c -4.248,-4.159 -8.412,-8.405 -12.611,-12.613 -0.647,-0.646 0.353,-1.648 0.998,-0.999 C -7.41,-9.407 -3.248,-5.161 1,-1.002 1.654,-0.361 0.654,0.638 0,0" /></g><g
           transform="translate(557.3193,451.2192)"
           id="g284"><path
             id="path286"
             style="fill:#470137;fill-opacity:1;fill-rule:nonzero;stroke:none"
             d="m 0,0 c -4.248,-4.159 -8.41,-8.405 -12.611,-12.613 -0.645,-0.646 0.355,-1.645 0.998,-0.999 C -7.408,-9.404 -3.246,-5.158 1,-1 1.654,-0.361 0.654,0.638 0,0" /></g><g
           transform="translate(555.0576,453.4839)"
           id="g288"><path
             id="path290"
             style="fill:#470137;fill-opacity:1;fill-rule:nonzero;stroke:none"
             d="m 0,0 c -4.248,-4.158 -8.412,-8.404 -12.613,-12.612 -0.645,-0.646 0.353,-1.648 1,-1 C -7.41,-9.406 -3.25,-5.16 1,-1.002 1.652,-0.361 0.654,0.639 0,0" /></g></g></g><g
       id="g292"><g
         clip-path="url(#clipPath298)"
         id="g294"><g
           transform="translate(429.4814,431.9312)"
           id="g300"><path
             id="path302"
             style="fill:#f37521;fill-opacity:1;fill-rule:nonzero;stroke:none"
             d="m 0,0 c 0,0 0.4,-17.477 37.74,-27.01 37.336,-9.532 55.213,-44.885 20.256,-90.569 -34.955,-45.679 -161.271,-87.386 -161.271,-87.386 0,0 134.658,56.802 72.691,112.414 0,0 34.957,44.09 -1.984,67.924 C -69.51,-0.795 0,0 0,0" /></g><g
           transform="translate(467.2217,404.9209)"
           id="g304"><path
             id="path306"
             style="fill:#470137;fill-opacity:1;fill-rule:nonzero;stroke:none"
             d="m 0,0 c -8.301,2.119 -14.77,4.631 -19.816,7.258 -0.239,-0.672 -1.11,-1.313 -3.024,-1.938 -8.541,-2.777 -12.219,-5.062 -9.933,-8.24 2.285,-3.178 29.591,4.07 30.388,-2.283 0.795,-6.36 -30.883,-16.983 -27.011,-20.758 3.873,-3.771 42.9,17.279 45.88,10.727 2.977,-6.555 -19.168,-18.071 -33.367,-19.164 -14.201,-1.096 -31.576,-7.547 -19.859,-13.112 11.715,-5.56 40.91,8.94 49.949,15.692 9.037,6.752 16.287,3.177 12.016,-1.789 -4.272,-4.963 -23.19,-5.161 -26.166,-11.866 -2.981,-6.701 -3.95,-9.531 -7.45,-10.425 -3.5,-0.893 -8.267,-6.405 -1.265,-7.971 7,-1.563 13.33,6.928 18.322,11.471 4.988,4.543 13.703,7.152 13.182,3.054 -0.522,-4.097 -23.758,-22.865 -41.338,-22.045 -17.576,0.817 -22.787,-10.502 -15.041,-14.228 7.744,-3.723 21.894,6.035 27.035,3.351 5.137,-2.679 4.019,-5.957 -3.65,-8.043 -7.672,-2.084 -28.6,6.629 -31.131,-1.562 -2.534,-8.193 24.353,-2.459 28.15,-4.246 3.801,-1.787 2.236,-9.16 -6.777,-9.237 -9.01,-0.072 -29.641,7.153 -31.43,-1.861 -1.785,-9.012 15.791,-3.5 20.037,-6.48 4.244,-2.977 -9.906,-11.991 -14.002,-11.541 -2.791,0.304 -16.209,-2.307 -23.654,-6.912 -1.459,-1.504 -2.979,-2.983 -4.545,-4.432 -0.484,-1.041 -0.611,-2.135 -0.279,-3.281 2.681,-9.235 -6.95,-12.114 -15.69,-14.399 -4.431,-1.158 -15.09,-6.611 -24.641,-14.342 38.874,14.829 110.407,45.416 135.366,78.034 C 55.213,-44.885 37.336,-9.531 0,0" /></g><g
           transform="translate(329.2847,509.687)"
           id="g308"><path
             id="path310"
             style="fill:#d05124;fill-opacity:1;fill-rule:nonzero;stroke:none"
             d="m 0,0 c 0,-2.139 -1.733,-3.874 -3.872,-3.874 -2.14,0 -3.873,1.735 -3.873,3.874 0,2.138 1.733,3.873 3.873,3.873 C -1.733,3.873 0,2.138 0,0" /></g><g
           transform="translate(328.3906,518.6235)"
           id="g312"><path
             id="path314"
             style="fill:#d05124;fill-opacity:1;fill-rule:nonzero;stroke:none"
             d="m 0,0 c 0,-1.207 -0.977,-2.185 -2.185,-2.185 -1.208,0 -2.186,0.978 -2.186,2.185 0,1.208 0.978,2.186 2.186,2.186 C -0.977,2.186 0,1.208 0,0" /></g><g
           transform="translate(344.0322,527.4131)"
           id="g316"><path
             id="path318"
             style="fill:#d05124;fill-opacity:1;fill-rule:nonzero;stroke:none"
             d="m 0,0 c 0,-1.317 -1.066,-2.383 -2.383,-2.383 -1.317,0 -2.383,1.066 -2.383,2.383 0,1.317 1.066,2.383 2.383,2.383 C -1.066,2.383 0,1.317 0,0" /></g><g
           transform="translate(362.6514,510.4312)"
           id="g320"><path
             id="path322"
             style="fill:#d05124;fill-opacity:1;fill-rule:nonzero;stroke:none"
             d="m 0,0 c 0,-0.904 -0.732,-1.637 -1.637,-1.637 -0.906,0 -1.64,0.733 -1.64,1.637 0,0.905 0.734,1.639 1.64,1.639 C -0.732,1.639 0,0.905 0,0" /></g><g
           transform="translate(353.0576,501.5825)"
           id="g324"><path
             id="path326"
             style="fill:#d05124;fill-opacity:1;fill-rule:nonzero;stroke:none"
             d="m 0,0 c 0,-2.188 -1.773,-3.961 -3.96,-3.961 -2.187,0 -3.962,1.773 -3.962,3.961 0,2.188 1.775,3.962 3.962,3.962 C -1.773,3.962 0,2.188 0,0" /></g><g
           transform="translate(336.4355,494.792)"
           id="g328"><path
             id="path330"
             style="fill:#d05124;fill-opacity:1;fill-rule:nonzero;stroke:none"
             d="m 0,0 c 0,-2.057 -1.667,-3.725 -3.725,-3.725 -2.057,0 -3.723,1.668 -3.723,3.725 0,2.057 1.666,3.723 3.723,3.723 C -1.667,3.723 0,2.057 0,0" /></g><g
           transform="translate(321.5396,491.0669)"
           id="g332"><path
             id="path334"
             style="fill:#d05124;fill-opacity:1;fill-rule:nonzero;stroke:none"
             d="m 0,0 c 0,-1.81 -1.466,-3.278 -3.278,-3.278 -1.81,0 -3.276,1.468 -3.276,3.278 0,1.812 1.466,3.277 3.276,3.277 C -1.466,3.277 0,1.812 0,0" /></g><g
           transform="translate(310.814,516.439)"
           id="g336"><path
             id="path338"
             style="fill:#d05124;fill-opacity:1;fill-rule:nonzero;stroke:none"
             d="m 0,0 c 0,-1.564 -1.266,-2.83 -2.829,-2.83 -1.565,0 -2.832,1.266 -2.832,2.83 0,1.564 1.267,2.831 2.832,2.831 C -1.266,2.831 0,1.564 0,0" /></g><g
           transform="translate(293.0889,527.4131)"
           id="g340"><path
             id="path342"
             style="fill:#d05124;fill-opacity:1;fill-rule:nonzero;stroke:none"
             d="m 0,0 c 0,-1.399 -1.134,-2.533 -2.532,-2.533 -1.399,0 -2.533,1.134 -2.533,2.533 0,1.398 1.134,2.532 2.533,2.532 C -1.134,2.532 0,1.398 0,0" /></g><g
           transform="translate(282.9604,521.3052)"
           id="g344"><path
             id="path346"
             style="fill:#d05124;fill-opacity:1;fill-rule:nonzero;stroke:none"
             d="m 0,0 c 0,-1.317 -1.067,-2.383 -2.383,-2.383 -1.319,0 -2.385,1.066 -2.385,2.383 0,1.317 1.066,2.383 2.385,2.383 C -1.067,2.383 0,1.317 0,0" /></g><g
           transform="translate(272.8291,518.6235)"
           id="g348"><path
             id="path350"
             style="fill:#d05124;fill-opacity:1;fill-rule:nonzero;stroke:none"
             d="m 0,0 c 0,-2.466 -2,-4.469 -4.466,-4.469 -2.468,0 -4.47,2.003 -4.47,4.469 0,2.468 2.002,4.469 4.47,4.469 C -2,4.469 0,2.468 0,0" /></g><g
           transform="translate(230.377,519.2695)"
           id="g352"><path
             id="path354"
             style="fill:#d05124;fill-opacity:1;fill-rule:nonzero;stroke:none"
             d="m 0,0 c 0,-0.823 -0.665,-1.49 -1.489,-1.49 -0.824,0 -1.489,0.667 -1.489,1.49 0,0.821 0.665,1.489 1.489,1.489 C -0.665,1.489 0,0.821 0,0" /></g><g
           transform="translate(222.0356,518.6235)"
           id="g356"><path
             id="path358"
             style="fill:#d05124;fill-opacity:1;fill-rule:nonzero;stroke:none"
             d="m 0,0 c 0,-1.479 -1.201,-2.68 -2.682,-2.68 -1.478,0 -2.68,1.201 -2.68,2.68 0,1.481 1.202,2.682 2.68,2.682 C -1.201,2.682 0,1.481 0,0" /></g><g
           transform="translate(377.8467,477.0649)"
           id="g360"><path
             id="path362"
             style="fill:#d05124;fill-opacity:1;fill-rule:nonzero;stroke:none"
             d="m 0,0 c 0,-2.632 -2.135,-4.767 -4.77,-4.767 -2.63,0 -4.765,2.135 -4.765,4.767 0,2.632 2.135,4.766 4.765,4.766 C -2.135,4.766 0,2.632 0,0" /></g><g
           transform="translate(383.8057,515.646)"
           id="g364"><path
             id="path366"
             style="fill:#d05124;fill-opacity:1;fill-rule:nonzero;stroke:none"
             d="m 0,0 c 0,-1.975 -1.602,-3.576 -3.576,-3.576 -1.975,0 -3.576,1.601 -3.576,3.576 0,1.973 1.601,3.575 3.576,3.575 C -1.602,3.575 0,1.973 0,0" /></g><g
           transform="translate(355.9482,481.8311)"
           id="g368"><path
             id="path370"
             style="fill:#d05124;fill-opacity:1;fill-rule:nonzero;stroke:none"
             d="m 0,0 c 0,-2.117 -1.717,-3.833 -3.836,-3.833 -2.117,0 -3.834,1.716 -3.834,3.833 0,2.12 1.717,3.836 3.834,3.836 C -1.717,3.836 0,2.12 0,0" /></g><g
           transform="translate(362.5029,471.5557)"
           id="g372"><path
             id="path374"
             style="fill:#d05124;fill-opacity:1;fill-rule:nonzero;stroke:none"
             d="m 0,0 c 0,-1.235 -1,-2.237 -2.234,-2.237 -1.234,0 -2.235,1.002 -2.235,2.237 0,1.232 1.001,2.232 2.235,2.232 C -1,2.232 0,1.232 0,0" /></g><g
           transform="translate(392.9893,478.5049)"
           id="g376"><path
             id="path378"
             style="fill:#d05124;fill-opacity:1;fill-rule:nonzero;stroke:none"
             d="m 0,0 c 0,-0.604 -0.486,-1.091 -1.094,-1.091 -0.605,0 -1.092,0.487 -1.092,1.091 0,0.607 0.487,1.094 1.092,1.094 C -0.486,1.094 0,0.607 0,0" /></g><g
           transform="translate(406.1963,485.0601)"
           id="g380"><path
             id="path382"
             style="fill:#d05124;fill-opacity:1;fill-rule:nonzero;stroke:none"
             d="m 0,0 c 0,-0.574 -0.469,-1.043 -1.043,-1.043 -0.574,0 -1.043,0.469 -1.043,1.043 0,0.574 0.469,1.043 1.043,1.043 C -0.469,1.043 0,0.574 0,0" /></g><g
           transform="translate(435.792,412.1787)"
           id="g384"><path
             id="path386"
             style="fill:#d05124;fill-opacity:1;fill-rule:nonzero;stroke:none"
             d="m 0,0 c 0,-1.645 -1.336,-2.98 -2.98,-2.98 -1.647,0 -2.981,1.335 -2.981,2.98 0,1.645 1.334,2.979 2.981,2.979 C -1.336,2.979 0,1.645 0,0" /></g><g
           transform="translate(423.8721,443.5112)"
           id="g388"><path
             id="path390"
             style="fill:#d05124;fill-opacity:1;fill-rule:nonzero;stroke:none"
             d="m 0,0 c 0,-1.646 -1.334,-2.98 -2.979,-2.98 -1.646,0 -2.978,1.334 -2.978,2.98 0,1.645 1.332,2.979 2.978,2.979 C -1.334,2.979 0,1.645 0,0" /></g><g
           transform="translate(429.9795,428.9521)"
           id="g392"><path
             id="path394"
             style="fill:#d05124;fill-opacity:1;fill-rule:nonzero;stroke:none"
             d="m 0,0 c 0,-1.645 -1.332,-2.979 -2.98,-2.979 -1.645,0 -2.977,1.334 -2.977,2.979 0,1.646 1.332,2.979 2.977,2.979 C -1.332,2.979 0,1.646 0,0" /></g><g
           transform="translate(424.0225,399.6064)"
           id="g396"><path
             id="path398"
             style="fill:#d05124;fill-opacity:1;fill-rule:nonzero;stroke:none"
             d="m 0,0 c 0,-1.727 -1.4,-3.127 -3.129,-3.127 -1.728,0 -3.129,1.4 -3.129,3.127 0,1.727 1.401,3.129 3.129,3.129 C -1.4,3.129 0,1.727 0,0" /></g><g
           transform="translate(385.5342,422.624)"
           id="g400"><path
             id="path402"
             style="fill:#d05124;fill-opacity:1;fill-rule:nonzero;stroke:none"
             d="m 0,0 c 0,-1.729 -1.398,-3.127 -3.129,-3.127 -1.725,0 -3.125,1.398 -3.125,3.127 0,1.727 1.4,3.129 3.125,3.129 C -1.398,3.129 0,1.727 0,0" /></g><g
           transform="translate(442.9404,393.3525)"
           id="g404"><path
             id="path406"
             style="fill:#d05124;fill-opacity:1;fill-rule:nonzero;stroke:none"
             d="m 0,0 c 0,-1.812 -1.469,-3.279 -3.277,-3.279 -1.811,0 -3.278,1.467 -3.278,3.279 0,1.811 1.467,3.277 3.278,3.277 C -1.469,3.277 0,1.811 0,0" /></g><g
           transform="translate(359.6128,427.8389)"
           id="g408"><path
             id="path410"
             style="fill:#d05124;fill-opacity:1;fill-rule:nonzero;stroke:none"
             d="m 0,0 c 0,-1.812 -1.466,-3.277 -3.278,-3.277 -1.81,0 -3.277,1.465 -3.277,3.277 0,1.811 1.467,3.277 3.277,3.277 C -1.466,3.277 0,1.811 0,0" /></g><g
           transform="translate(453.3682,396.4795)"
           id="g412"><path
             id="path414"
             style="fill:#d05124;fill-opacity:1;fill-rule:nonzero;stroke:none"
             d="m 0,0 c 0,-1.152 -0.936,-2.086 -2.086,-2.086 -1.154,0 -2.086,0.934 -2.086,2.086 0,1.152 0.932,2.084 2.086,2.084 C -0.936,2.084 0,1.152 0,0" /></g><g
           transform="translate(377.249,407.1143)"
           id="g416"><path
             id="path418"
             style="fill:#d05124;fill-opacity:1;fill-rule:nonzero;stroke:none"
             d="m 0,0 c 0,-1.152 -0.932,-2.086 -2.086,-2.086 -1.152,0 -2.086,0.934 -2.086,2.086 0,1.15 0.934,2.084 2.086,2.084 C -0.932,2.084 0,1.15 0,0" /></g><g
           transform="translate(410.3662,409.1982)"
           id="g420"><path
             id="path422"
             style="fill:#d05124;fill-opacity:1;fill-rule:nonzero;stroke:none"
             d="m 0,0 c 0,-1.15 -0.934,-2.086 -2.084,-2.086 -1.152,0 -2.086,0.936 -2.086,2.086 0,1.152 0.934,2.086 2.086,2.086 C -0.934,2.086 0,1.152 0,0" /></g><g
           transform="translate(391.2764,409.1982)"
           id="g424"><path
             id="path426"
             style="fill:#d05124;fill-opacity:1;fill-rule:nonzero;stroke:none"
             d="m 0,0 c 0,-1.15 -0.932,-2.086 -2.082,-2.086 -1.154,0 -2.086,0.936 -2.086,2.086 0,1.152 0.932,2.086 2.086,2.086 C -0.932,2.086 0,1.152 0,0" /></g><g
           transform="translate(440.5557,448.5337)"
           id="g428"><path
             id="path430"
             style="fill:#d05124;fill-opacity:1;fill-rule:nonzero;stroke:none"
             d="m 0,0 c 0,-1.15 -0.934,-2.086 -2.084,-2.086 -1.152,0 -2.086,0.936 -2.086,2.086 0,1.153 0.934,2.086 2.086,2.086 C -0.934,2.086 0,1.153 0,0" /></g><g
           transform="translate(372.0146,440.5337)"
           id="g432"><path
             id="path434"
             style="fill:#d05124;fill-opacity:1;fill-rule:nonzero;stroke:none"
             d="m 0,0 c 0,-1.153 -0.936,-2.086 -2.086,-2.086 -1.152,0 -2.086,0.933 -2.086,2.086 0,1.15 0.934,2.083 2.086,2.083 C -0.936,2.083 0,1.15 0,0" /></g><g
           transform="translate(342.5229,420.54)"
           id="g436"><path
             id="path438"
             style="fill:#d05124;fill-opacity:1;fill-rule:nonzero;stroke:none"
             d="m 0,0 c 0,-1.152 -0.933,-2.086 -2.085,-2.086 -1.153,0 -2.085,0.934 -2.085,2.086 0,1.15 0.932,2.084 2.085,2.084 C -0.933,2.084 0,1.15 0,0" /></g><g
           transform="translate(433.7061,380.9873)"
           id="g440"><path
             id="path442"
             style="fill:#d05124;fill-opacity:1;fill-rule:nonzero;stroke:none"
             d="m 0,0 c 0,-4.605 -3.736,-8.342 -8.344,-8.342 -4.605,0 -8.342,3.737 -8.342,8.342 0,4.607 3.737,8.344 8.342,8.344 C -3.736,8.344 0,4.607 0,0" /></g><g
           transform="translate(411.6318,427.8389)"
           id="g444"><path
             id="path446"
             style="fill:#d05124;fill-opacity:1;fill-rule:nonzero;stroke:none"
             d="m 0,0 c 0,-4.607 -3.736,-8.342 -8.342,-8.342 -4.607,0 -8.344,3.735 -8.344,8.342 0,4.604 3.737,8.34 8.344,8.34 C -3.736,8.34 0,4.604 0,0" /></g><g
           transform="translate(462.5088,376.5186)"
           id="g448"><path
             id="path450"
             style="fill:#d05124;fill-opacity:1;fill-rule:nonzero;stroke:none"
             d="m 0,0 c 0,-2.088 -1.691,-3.779 -3.779,-3.779 -2.09,0 -3.782,1.691 -3.782,3.779 0,2.088 1.692,3.779 3.782,3.779 C -1.691,3.779 0,2.088 0,0" /></g><g
           transform="translate(470.0498,383.2217)"
           id="g452"><path
             id="path454"
             style="fill:#d05124;fill-opacity:1;fill-rule:nonzero;stroke:none"
             d="m 0,0 c 0,-1.07 -0.865,-1.937 -1.937,-1.937 -1.069,0 -1.938,0.867 -1.938,1.937 0,1.07 0.869,1.937 1.938,1.937 C -0.865,1.937 0,1.07 0,0" /></g><g
           transform="translate(421.1924,356.2607)"
           id="g456"><path
             id="path458"
             style="fill:#d05124;fill-opacity:1;fill-rule:nonzero;stroke:none"
             d="m 0,0 c 0,-1.893 -1.535,-3.426 -3.428,-3.426 -1.892,0 -3.424,1.533 -3.424,3.426 0,1.893 1.532,3.426 3.424,3.426 C -1.535,3.426 0,1.893 0,0" /></g><g
           transform="translate(442.1943,345.2393)"
           id="g460"><path
             id="path462"
             style="fill:#d05124;fill-opacity:1;fill-rule:nonzero;stroke:none"
             d="m 0,0 c 0,-1.4 -1.135,-2.533 -2.531,-2.533 -1.399,0 -2.533,1.133 -2.533,2.533 0,1.396 1.134,2.529 2.533,2.529 C -1.135,2.529 0,1.396 0,0" /></g><g
           transform="translate(389.1943,451.0679)"
           id="g464"><path
             id="path466"
             style="fill:#d05124;fill-opacity:1;fill-rule:nonzero;stroke:none"
             d="m 0,0 c 0,-1.401 -1.135,-2.534 -2.535,-2.534 -1.397,0 -2.531,1.133 -2.531,2.534 0,1.396 1.134,2.529 2.531,2.529 C -1.135,2.529 0,1.396 0,0" /></g><g
           transform="translate(420.8936,344.4932)"
           id="g468"><path
             id="path470"
             style="fill:#d05124;fill-opacity:1;fill-rule:nonzero;stroke:none"
             d="m 0,0 c 0,-1.727 -1.4,-3.129 -3.129,-3.129 -1.725,0 -3.127,1.402 -3.127,3.129 0,1.729 1.402,3.129 3.127,3.129 C -1.4,3.129 0,1.729 0,0" /></g><g
           transform="translate(419.7002,332.1299)"
           id="g472"><path
             id="path474"
             style="fill:#d05124;fill-opacity:1;fill-rule:nonzero;stroke:none"
             d="m 0,0 c 0,-1.48 -1.199,-2.68 -2.68,-2.68 -1.478,0 -2.679,1.2 -2.679,2.68 0,1.48 1.201,2.684 2.679,2.684 C -1.199,2.684 0,1.48 0,0" /></g><g
           transform="translate(455.8994,352.2412)"
           id="g476"><path
             id="path478"
             style="fill:#d05124;fill-opacity:1;fill-rule:nonzero;stroke:none"
             d="m 0,0 c 0,-1.402 -1.135,-2.535 -2.531,-2.535 -1.403,0 -2.535,1.133 -2.535,2.535 0,1.396 1.132,2.531 2.535,2.531 C -1.135,2.531 0,1.396 0,0" /></g><g
           transform="translate(443.6846,303.7549)"
           id="g480"><path
             id="path482"
             style="fill:#d05124;fill-opacity:1;fill-rule:nonzero;stroke:none"
             d="m 0,0 c 0,-1.521 -1.232,-2.756 -2.756,-2.756 -1.521,0 -2.754,1.235 -2.754,2.756 0,1.521 1.233,2.754 2.754,2.754 C -1.232,2.754 0,1.521 0,0" /></g><g
           transform="translate(456.7178,318.7998)"
           id="g484"><path
             id="path486"
             style="fill:#d05124;fill-opacity:1;fill-rule:nonzero;stroke:none"
             d="m 0,0 c 0,-1.4 -1.133,-2.533 -2.533,-2.533 -1.399,0 -2.531,1.133 -2.531,2.533 0,1.398 1.132,2.531 2.531,2.531 C -1.133,2.531 0,1.398 0,0" /></g><g
           transform="translate(421.1924,320.3623)"
           id="g488"><path
             id="path490"
             style="fill:#d05124;fill-opacity:1;fill-rule:nonzero;stroke:none"
             d="m 0,0 c 0,-1.029 -0.832,-1.863 -1.863,-1.863 -1.028,0 -1.864,0.834 -1.864,1.863 0,1.031 0.836,1.863 1.864,1.863 C -0.832,1.863 0,1.031 0,0" /></g><g
           transform="translate(431.917,339.5791)"
           id="g492"><path
             id="path494"
             style="fill:#d05124;fill-opacity:1;fill-rule:nonzero;stroke:none"
             d="m 0,0 c 0,-0.785 -0.633,-1.414 -1.414,-1.414 -0.785,0 -1.416,0.629 -1.416,1.414 0,0.779 0.631,1.414 1.416,1.414 C -0.633,1.414 0,0.779 0,0" /></g><g
           transform="translate(481.5205,350.3037)"
           id="g496"><path
             id="path498"
             style="fill:#d05124;fill-opacity:1;fill-rule:nonzero;stroke:none"
             d="m 0,0 c 0,-1.4 -1.135,-2.535 -2.533,-2.535 -1.399,0 -2.533,1.135 -2.533,2.535 0,1.396 1.134,2.531 2.533,2.531 C -1.135,2.531 0,1.396 0,0" /></g><g
           transform="translate(421.2412,285.0557)"
           id="g500"><path
             id="path502"
             style="fill:#d05124;fill-opacity:1;fill-rule:nonzero;stroke:none"
             d="m 0,0 c 0,-1.037 -0.846,-1.883 -1.887,-1.883 -1.039,0 -1.884,0.846 -1.884,1.883 0,1.043 0.845,1.887 1.884,1.887 C -0.846,1.887 0,1.043 0,0" /></g><g
           transform="translate(388.2686,257.4521)"
           id="g504"><path
             id="path506"
             style="fill:#d05124;fill-opacity:1;fill-rule:nonzero;stroke:none"
             d="m 0,0 c 0,-1.264 -1.02,-2.283 -2.283,-2.283 -1.26,0 -2.283,1.019 -2.283,2.283 0,1.26 1.023,2.283 2.283,2.283 C -1.02,2.283 0,1.26 0,0" /></g><g
           transform="translate(450.6846,336.0049)"
           id="g508"><path
             id="path510"
             style="fill:#d05124;fill-opacity:1;fill-rule:nonzero;stroke:none"
             d="m 0,0 c 0,-0.658 -0.533,-1.191 -1.191,-1.191 -0.659,0 -1.192,0.533 -1.192,1.191 0,0.658 0.533,1.191 1.192,1.191 C -0.533,1.191 0,0.658 0,0" /></g></g></g><g
       id="g512"><g
         clip-path="url(#clipPath518)"
         id="g514"><g
           transform="translate(181.2783,206.708)"
           id="g520"><path
             id="path522"
             style="fill:#470137;fill-opacity:1;fill-rule:nonzero;stroke:none"
             d="M 0,0 -28.358,-12.215 -29.401,-17.877 0,-4.766 Z" /></g><g
           transform="translate(149.0479,179.7451)"
           id="g524"><path
             id="path526"
             style="fill:#470137;fill-opacity:1;fill-rule:nonzero;stroke:none"
             d="M 0,0 32.23,18.025 30.237,8.195 2.829,-4.467 Z" /></g><g
           transform="translate(153.5171,167.5322)"
           id="g528"><path
             id="path530"
             style="fill:#470137;fill-opacity:1;fill-rule:nonzero;stroke:none"
             d="M 0,0 C 1.191,0.297 25.917,15.045 25.917,15.045 V 11.768 L 0.743,-2.98 Z" /></g><g
           transform="translate(157.9834,162.7627)"
           id="g532"><path
             id="path534"
             style="fill:#470137;fill-opacity:1;fill-rule:nonzero;stroke:none"
             d="M 0,0 20.706,11.398 V 9.535 L 1.343,-1.637 Z" /></g><g
           transform="translate(159.1763,150.1045)"
           id="g536"><path
             id="path538"
             style="fill:#470137;fill-opacity:1;fill-rule:nonzero;stroke:none"
             d="M 0,0 C 0.447,0.297 19.513,12.811 19.513,12.811 V 4.617 L 7.299,-4.172 Z" /></g><g
           transform="translate(181.2759,206.708)"
           id="g540"><path
             id="path542"
             style="fill:#470137;fill-opacity:1;fill-rule:nonzero;stroke:none"
             d="M 0,0 28.356,-12.215 29.4,-17.877 0,-4.766 Z" /></g><g
           transform="translate(213.5063,179.7451)"
           id="g544"><path
             id="path546"
             style="fill:#470137;fill-opacity:1;fill-rule:nonzero;stroke:none"
             d="m 0,0 -32.23,18.025 1.992,-9.83 27.407,-12.662 z" /></g><g
           transform="translate(209.0371,167.5322)"
           id="g548"><path
             id="path550"
             style="fill:#470137;fill-opacity:1;fill-rule:nonzero;stroke:none"
             d="M 0,0 C -1.191,0.297 -25.917,15.045 -25.917,15.045 V 11.768 L -0.745,-2.98 Z" /></g><g
           transform="translate(204.5679,162.7627)"
           id="g552"><path
             id="path554"
             style="fill:#470137;fill-opacity:1;fill-rule:nonzero;stroke:none"
             d="M 0,0 -20.704,11.398 V 9.535 L -1.34,-1.637 Z" /></g><g
           transform="translate(203.3765,150.1045)"
           id="g556"><path
             id="path558"
             style="fill:#470137;fill-opacity:1;fill-rule:nonzero;stroke:none"
             d="M 0,0 C -0.446,0.297 -19.513,12.811 -19.513,12.811 V 4.617 l 12.215,-8.789 z" /></g><g
           transform="translate(169.6021,143.1025)"
           id="g560"><path
             id="path562"
             style="fill:#470137;fill-opacity:1;fill-rule:nonzero;stroke:none"
             d="M 0,0 9.833,7.744 9.087,3.873 1.044,-1.637 Z" /></g><g
           transform="translate(191.9678,143.5264)"
           id="g564"><path
             id="path566"
             style="fill:#470137;fill-opacity:1;fill-rule:nonzero;stroke:none"
             d="m 0,0 -9.833,7.746 0.747,-3.875 8.043,-5.512 z" /></g></g></g><g
       id="g568"><g
         clip-path="url(#clipPath574)"
         id="g570"><g
           transform="translate(498.5068,471.8809)"
           id="g576"><path
             id="path578"
             style="fill:#470137;fill-opacity:1;fill-rule:nonzero;stroke:none"
             d="m 0,0 c 0,-1.991 -1.611,-3.603 -3.604,-3.603 -1.988,0 -3.601,1.612 -3.601,3.603 0,1.991 1.613,3.603 3.601,3.603 C -1.611,3.603 0,1.991 0,0" /></g><g
           transform="translate(495.8193,471.8809)"
           id="g580"><path
             id="path582"
             style="fill:#f6d499;fill-opacity:1;fill-rule:nonzero;stroke:none"
             d="m 0,0 c 0,-0.505 -0.41,-0.915 -0.916,-0.915 -0.504,0 -0.914,0.41 -0.914,0.915 0,0.505 0.41,0.915 0.914,0.915 C -0.41,0.915 0,0.505 0,0" /></g><g
           transform="translate(488.8213,475.1353)"
           id="g584"><path
             id="path586"
             style="fill:#f6d499;fill-opacity:1;fill-rule:nonzero;stroke:none"
             d="m 0,0 c 0,-0.215 -0.176,-0.39 -0.391,-0.39 -0.214,0 -0.388,0.175 -0.388,0.39 0,0.215 0.174,0.39 0.388,0.39 C -0.176,0.39 0,0.215 0,0" /></g><g
           transform="translate(488.1846,473.4492)"
           id="g588"><path
             id="path590"
             style="fill:#f6d499;fill-opacity:1;fill-rule:nonzero;stroke:none"
             d="M 0,0 C 0.057,-0.208 -0.068,-0.42 -0.275,-0.477 -0.48,-0.53 -0.697,-0.408 -0.752,-0.2 -0.809,0.008 -0.684,0.22 -0.477,0.277 -0.268,0.331 -0.053,0.208 0,0" /></g><g
           transform="translate(488.0088,471.6577)"
           id="g592"><path
             id="path594"
             style="fill:#f6d499;fill-opacity:1;fill-rule:nonzero;stroke:none"
             d="m 0,0 c 0.107,-0.187 0.041,-0.425 -0.145,-0.533 -0.183,-0.105 -0.423,-0.043 -0.529,0.144 -0.111,0.184 -0.045,0.425 0.141,0.53 C -0.346,0.249 -0.107,0.185 0,0" /></g><g
           transform="translate(488.2998,469.8794)"
           id="g596"><path
             id="path598"
             style="fill:#f6d499;fill-opacity:1;fill-rule:nonzero;stroke:none"
             d="m 0,0 c 0.152,-0.151 0.152,-0.399 0,-0.551 -0.15,-0.151 -0.398,-0.151 -0.551,0.003 -0.15,0.149 -0.15,0.397 0,0.548 C -0.398,0.151 -0.15,0.154 0,0" /></g><g
           transform="translate(489.0439,468.2397)"
           id="g600"><path
             id="path602"
             style="fill:#f6d499;fill-opacity:1;fill-rule:nonzero;stroke:none"
             d="m 0,0 c 0.184,-0.108 0.248,-0.346 0.143,-0.533 -0.108,-0.185 -0.348,-0.249 -0.534,-0.141 -0.185,0.105 -0.248,0.346 -0.142,0.53 C -0.426,0.041 -0.186,0.107 0,0" /></g><g
           transform="translate(490.1865,466.8457)"
           id="g604"><path
             id="path606"
             style="fill:#f6d499;fill-opacity:1;fill-rule:nonzero;stroke:none"
             d="M 0,0 C 0.207,-0.057 0.33,-0.269 0.273,-0.477 0.219,-0.682 0.006,-0.808 -0.203,-0.751 -0.412,-0.697 -0.533,-0.482 -0.479,-0.277 -0.42,-0.069 -0.207,0.056 0,0" /></g><g
           transform="translate(491.6494,465.7974)"
           id="g608"><path
             id="path610"
             style="fill:#f6d499;fill-opacity:1;fill-rule:nonzero;stroke:none"
             d="M 0,0 C 0.215,0 0.391,-0.177 0.387,-0.39 0.391,-0.604 0.215,-0.779 0,-0.779 -0.215,-0.782 -0.393,-0.604 -0.393,-0.392 -0.389,-0.177 -0.215,0 0,0" /></g><g
           transform="translate(493.333,465.1621)"
           id="g612"><path
             id="path614"
             style="fill:#f6d499;fill-opacity:1;fill-rule:nonzero;stroke:none"
             d="M 0,0 C 0.211,0.056 0.424,-0.069 0.477,-0.277 0.533,-0.482 0.41,-0.697 0.203,-0.753 -0.004,-0.81 -0.221,-0.685 -0.273,-0.479 -0.328,-0.272 -0.205,-0.054 0,0" /></g><g
           transform="translate(495.1279,464.9849)"
           id="g616"><path
             id="path618"
             style="fill:#f6d499;fill-opacity:1;fill-rule:nonzero;stroke:none"
             d="M 0,0 C 0.186,0.108 0.424,0.041 0.533,-0.144 0.641,-0.331 0.576,-0.566 0.389,-0.676 0.205,-0.784 -0.037,-0.717 -0.145,-0.535 -0.25,-0.346 -0.186,-0.107 0,0" /></g><g
           transform="translate(496.9033,465.2773)"
           id="g620"><path
             id="path622"
             style="fill:#f6d499;fill-opacity:1;fill-rule:nonzero;stroke:none"
             d="M 0,0 C 0.154,0.151 0.402,0.151 0.553,-0.003 0.701,-0.151 0.701,-0.397 0.551,-0.551 0.402,-0.705 0.15,-0.702 0.002,-0.554 -0.148,-0.4 -0.152,-0.151 0,0" /></g><g
           transform="translate(498.5439,466.0205)"
           id="g624"><path
             id="path626"
             style="fill:#f6d499;fill-opacity:1;fill-rule:nonzero;stroke:none"
             d="M 0,0 C 0.107,0.187 0.348,0.249 0.535,0.141 0.719,0.033 0.783,-0.203 0.674,-0.39 0.57,-0.579 0.326,-0.641 0.145,-0.536 -0.039,-0.426 -0.105,-0.185 0,0" /></g><g
           transform="translate(499.9365,467.1606)"
           id="g628"><path
             id="path630"
             style="fill:#f6d499;fill-opacity:1;fill-rule:nonzero;stroke:none"
             d="M 0,0 C 0.055,0.21 0.271,0.331 0.477,0.277 0.687,0.22 0.809,0.008 0.752,-0.203 0.699,-0.41 0.482,-0.533 0.277,-0.477 0.07,-0.42 -0.057,-0.205 0,0" /></g><g
           transform="translate(500.9854,468.624)"
           id="g632"><path
             id="path634"
             style="fill:#f6d499;fill-opacity:1;fill-rule:nonzero;stroke:none"
             d="M 0,0 C 0,0.218 0.18,0.389 0.393,0.389 0.607,0.389 0.781,0.218 0.779,0 0.781,-0.215 0.605,-0.39 0.395,-0.39 0.18,-0.387 0,-0.213 0,0" /></g><g
           transform="translate(501.6201,470.3101)"
           id="g636"><path
             id="path638"
             style="fill:#f6d499;fill-opacity:1;fill-rule:nonzero;stroke:none"
             d="M 0,0 C -0.053,0.208 0.072,0.423 0.277,0.477 0.484,0.533 0.697,0.41 0.752,0.203 0.812,-0.005 0.687,-0.22 0.48,-0.274 0.271,-0.331 0.057,-0.205 0,0" /></g><g
           transform="translate(501.7998,472.1011)"
           id="g640"><path
             id="path642"
             style="fill:#f6d499;fill-opacity:1;fill-rule:nonzero;stroke:none"
             d="M 0,0 C -0.107,0.187 -0.041,0.428 0.145,0.533 0.33,0.641 0.564,0.577 0.672,0.39 0.785,0.205 0.717,-0.036 0.533,-0.141 0.346,-0.246 0.105,-0.184 0,0" /></g><g
           transform="translate(501.5049,473.877)"
           id="g644"><path
             id="path646"
             style="fill:#f6d499;fill-opacity:1;fill-rule:nonzero;stroke:none"
             d="M 0,0 C -0.15,0.154 -0.148,0.405 0.004,0.554 0.154,0.705 0.4,0.705 0.551,0.551 0.705,0.402 0.705,0.154 0.555,0.003 0.402,-0.146 0.152,-0.148 0,0" /></g><g
           id="g648"><g
             id="g650" /><g
             id="g714"><g
               style="opacity:0.5"
               id="g712"
               clip-path="url(#clipPath654)"><g
                 id="g658"
                 transform="translate(359.0093,444.2261)"><path
                   id="path656"
                   style="fill:#bfdfef;fill-opacity:1;fill-rule:nonzero;stroke:none"
                   d="m 0,0 c -9.17,-1.625 -18.078,-6.553 -22.111,-12.926 -4.059,-6.43 -0.213,-13.678 10.466,-11.073 7.756,1.887 14.657,6.727 19.051,11.725 C 12.226,-6.801 11.636,2.065 0,0 -1.99,-0.354 5.277,0.94 0,0" /></g><g
                 id="g662"
                 transform="translate(393.9404,456.3237)"><path
                   id="path660"
                   style="fill:#bfdfef;fill-opacity:1;fill-rule:nonzero;stroke:none"
                   d="m 0,0 c -7.01,2.183 -17.23,-0.413 -23.076,-3.562 -7.369,-3.969 -0.27,-10.086 6.191,-11.36 6.158,-1.204 15.383,-0.574 20.074,2.988 C 8.141,-8.162 6.537,-2.035 0,0 -4.687,1.463 8.598,-2.681 0,0" /></g><g
                 id="g666"
                 transform="translate(388.1846,436.6226)"><path
                   id="path664"
                   style="fill:#bfdfef;fill-opacity:1;fill-rule:nonzero;stroke:none"
                   d="M 0,0 C -4.428,7.217 -24.021,-0.771 -17.51,-7.042 -12.711,-11.659 3.371,-5.517 0,0 -1.549,2.529 2.689,-4.405 0,0" /></g><g
                 id="g670"
                 transform="translate(398.7158,426.5811)"><path
                   id="path668"
                   style="fill:#bfdfef;fill-opacity:1;fill-rule:nonzero;stroke:none"
                   d="m 0,0 c -3.043,0.83 -6.721,0.885 -9.682,-0.193 -3.486,-0.33 -5.906,-3.485 -2.453,-5.289 2.998,-1.553 7.213,-2.342 10.424,-0.616 C 0.391,-4.967 4.102,-1.119 0,0 -2.984,0.811 1.238,-0.34 0,0" /></g><g
                 id="g674"
                 transform="translate(386.0596,389.6689)"><path
                   id="path672"
                   style="fill:#bfdfef;fill-opacity:1;fill-rule:nonzero;stroke:none"
                   d="M 0,0 C -0.607,-0.08 -1.488,0.145 -1.57,-0.59 -1.67,-1.463 -0.561,-2.711 0.656,-2.832 3.467,-3.105 3.113,0.402 0,0 -0.105,-0.012 1.191,0.156 0,0" /></g><g
                 id="g678"
                 transform="translate(413.4131,441.0278)"><path
                   id="path676"
                   style="fill:#bfdfef;fill-opacity:1;fill-rule:nonzero;stroke:none"
                   d="m 0,0 c -1.979,1.717 -5.184,3.941 -8.426,3.954 -4.517,0.018 -6.627,-4.41 -4.558,-7.27 C -8.541,-9.472 9.123,-7.896 0,0 -1.955,1.688 1.627,-1.401 0,0" /></g><g
                 id="g682"
                 transform="translate(426.7764,458.543)"><path
                   id="path680"
                   style="fill:#bfdfef;fill-opacity:1;fill-rule:nonzero;stroke:none"
                   d="m 0,0 c -3.746,1.255 -7.689,0.144 -10.691,-1.684 -3.213,-0.674 -6.907,-1.783 -8.635,-4.066 -3.908,-5.171 4.965,-8.862 10.135,-10.427 5.996,-1.81 13.308,-1.864 16.195,3.29 C 9.715,-8.051 6.359,-2.127 0,0 -3.809,1.273 6.873,-2.296 0,0" /></g><g
                 id="g686"
                 transform="translate(391.8877,478.687)"><path
                   id="path684"
                   style="fill:#bfdfef;fill-opacity:1;fill-rule:nonzero;stroke:none"
                   d="M 0,0 C -3.645,-0.097 -15.66,-1.166 -10.232,-6.099 -7.127,-8.913 -0.07,-11.337 4.809,-11.508 16.115,-11.903 8.197,0.208 0,0 -0.426,-0.013 5.859,0.148 0,0" /></g><g
                 id="g690"
                 transform="translate(433.8877,418.2744)"><path
                   id="path688"
                   style="fill:#bfdfef;fill-opacity:1;fill-rule:nonzero;stroke:none"
                   d="M 0,0 C -4.801,2.348 -11.277,-3.033 -7.645,-6.281 -3.914,-9.611 7.264,-3.557 0,0 -1.857,0.91 1.562,-0.768 0,0" /></g><g
                 id="g694"
                 transform="translate(448.5576,428.7686)"><path
                   id="path692"
                   style="fill:#bfdfef;fill-opacity:1;fill-rule:nonzero;stroke:none"
                   d="m 0,0 c -2.234,0.148 -4.385,-0.725 -3.344,-2.113 0.879,-1.17 2.727,-2.369 4.192,-3.094 2.494,-1.246 3.035,0.041 3.109,2.031 C 4.025,-1.076 1.979,-0.137 0,0" /></g><g
                 id="g698"
                 transform="translate(426.1045,430.7119)"><path
                   id="path696"
                   style="fill:#bfdfef;fill-opacity:1;fill-rule:nonzero;stroke:none"
                   d="M 0,0 C -2.736,1.788 -11.934,1.257 -7.828,-2.361 -4.779,-5.057 2.502,-1.637 0,0 -1.545,1.014 0.5,-0.334 0,0" /></g><g
                 id="g702"
                 transform="translate(366.415,424.4385)"><path
                   id="path700"
                   style="fill:#bfdfef;fill-opacity:1;fill-rule:nonzero;stroke:none"
                   d="M 0,0 C -1.85,4.951 -6.459,0.867 -8.184,-1.436 -9.618,-3.34 2.238,-6.002 0,0 -0.44,1.158 0.459,-1.232 0,0" /></g><g
                 id="g706"
                 transform="translate(411.3389,395.2373)"><path
                   id="path704"
                   style="fill:#bfdfef;fill-opacity:1;fill-rule:nonzero;stroke:none"
                   d="M 0,0 C -0.182,0.818 -4.391,1.02 -4.033,-0.492 -3.516,-2.719 0.531,-2.539 0,0 -0.008,0.018 0.156,-0.738 0,0" /></g><g
                 id="g710"
                 transform="translate(395.5225,439.0776)"><path
                   id="path708"
                   style="fill:#bfdfef;fill-opacity:1;fill-rule:nonzero;stroke:none"
                   d="M 0,0 C -0.92,2.368 -11.006,0.961 -6.801,-2.234 -3.479,-4.764 1.514,-3.89 0,0 -0.176,0.443 0.596,-1.53 0,0" /></g></g></g></g></g></g></g></svg>