<?xml version="1.0" standalone="no"?>
<!DOCTYPE svg PUBLIC "-//W3C//DTD SVG 20010904//EN"
 "http://www.w3.org/TR/2001/REC-SVG-20010904/DTD/svg10.dtd">
<svg version="1.0" xmlns="http://www.w3.org/2000/svg"
 width="400.000000pt" height="400.000000pt" viewBox="0 0 400.000000 400.000000"
 preserveAspectRatio="xMidYMid meet">
<metadata>
Created by potrace 1.13, written by Peter Selinger 2001-2015
</metadata>
<g transform="translate(0.000000,400.000000) scale(0.100000,-0.100000)"
fill="#000000" stroke="none">
<path d="M925 3871 c-66 -40 -80 -76 -54 -138 11 -26 10 -39 -1 -75 -7 -23
-18 -49 -24 -57 -9 -12 -8 -12 10 -1 13 8 26 33 34 63 7 28 23 60 36 71 21 18
35 60 47 135 3 22 -15 23 -48 2z"/>
<path d="M1876 3880 c-16 -5 -48 -7 -72 -3 -65 9 -113 -4 -124 -32 -6 -15 -29
-33 -64 -49 -77 -35 -107 -79 -115 -165 -6 -60 -12 -75 -50 -125 -23 -32 -55
-85 -70 -119 -16 -34 -43 -96 -62 -137 -33 -73 -34 -77 -29 -180 3 -58 4 -169
2 -246 l-3 -142 38 -7 c68 -12 72 -18 67 -82 -3 -32 -26 -122 -52 -200 -43
-136 -47 -143 -72 -143 -14 0 -35 -7 -46 -15 -10 -8 -28 -15 -39 -15 -29 0
-70 -29 -148 -100 -71 -66 -128 -158 -141 -231 -4 -21 -12 -42 -20 -48 -27
-22 -99 -41 -188 -47 -72 -6 -95 -11 -116 -29 -24 -20 -25 -24 -13 -53 15 -35
63 -62 110 -62 32 0 35 -3 45 -51 4 -17 20 -35 42 -48 29 -17 34 -25 28 -44
-14 -47 -103 -228 -138 -279 -46 -70 -66 -127 -73 -208 -7 -92 19 -156 101
-246 102 -112 143 -118 263 -40 101 65 123 94 123 164 0 60 9 93 48 187 25 58
60 115 71 115 3 0 17 -24 30 -53 122 -268 135 -338 79 -446 -29 -57 -30 -62
-15 -79 22 -24 22 -24 -16 -118 l-33 -81 -35 18 c-50 27 -64 24 -110 -23 -65
-67 -83 -116 -82 -223 1 -49 1 -114 2 -143 l0 -52 862 0 c816 0 861 1 854 18
-33 80 -89 250 -111 333 -24 92 -24 102 -10 118 29 32 12 130 -34 188 -12 15
-18 34 -15 44 9 28 -10 83 -50 143 -22 34 -34 62 -31 73 3 10 8 63 11 118 5
78 10 104 24 119 18 18 20 15 50 -75 17 -52 31 -104 31 -116 0 -12 5 -25 10
-28 6 -3 10 -17 10 -29 0 -13 7 -30 16 -37 9 -7 20 -23 25 -36 4 -12 23 -30
41 -39 50 -25 66 -43 106 -114 55 -99 164 -233 209 -255 21 -11 40 -21 42 -22
2 -1 -9 -13 -24 -26 l-28 -23 13 -75 c22 -127 24 -196 6 -234 -9 -18 -16 -36
-16 -39 0 -3 54 -6 120 -6 l120 0 0 73 c0 39 -5 88 -10 107 -9 30 -6 45 16 99
25 58 26 65 11 76 -24 17 -12 80 19 100 13 8 24 21 24 28 0 7 13 20 29 30 23
13 30 26 34 59 3 24 11 74 17 111 10 62 9 70 -10 96 -11 16 -18 36 -15 43 9
22 -32 66 -73 79 -37 11 -37 11 -37 67 0 39 -8 71 -22 101 l-22 44 24 29 c32
38 55 115 62 203 3 39 11 80 19 92 15 23 34 77 53 153 14 52 17 158 6 212 -5
25 -2 53 8 82 13 37 13 47 2 56 -7 6 -15 30 -18 53 -4 38 4 60 81 214 l85 173
12 149 c7 99 16 155 25 166 8 9 38 28 68 41 30 13 64 36 75 51 12 15 30 34 39
42 22 19 24 51 3 51 -8 0 -25 -14 -37 -31 -30 -41 -76 -68 -126 -74 l-41 -5
-3 57 c-3 58 -3 58 -33 55 -16 -2 -32 -6 -35 -9 -3 -3 -4 -52 -3 -110 2 -89
-1 -111 -18 -145 -15 -29 -20 -57 -19 -101 1 -34 -6 -89 -15 -122 -19 -67 -85
-186 -100 -182 -16 6 -35 99 -35 178 0 59 -4 82 -19 100 -10 13 -22 35 -26 49
-4 14 -17 39 -29 55 -17 25 -21 44 -21 110 0 60 -4 83 -15 92 -25 19 -26 254
-1 372 11 51 21 94 23 96 2 1 27 15 56 30 75 40 67 73 -10 40 -33 -14 -19 20
28 65 25 25 64 69 86 98 32 41 56 60 105 82 40 18 63 35 63 45 0 13 -6 15 -31
10 -20 -5 -41 -2 -56 6 -23 12 -27 11 -45 -11 -83 -106 -151 -170 -165 -157
-3 4 15 38 40 76 60 89 63 97 38 110 -16 9 -22 8 -31 -8 -5 -11 -37 -54 -70
-95 -56 -71 -62 -75 -91 -69 -32 6 -32 6 -25 -28 24 -118 28 -165 17 -206 -9
-31 -17 -42 -34 -45 -25 -3 -30 -22 -45 -148 l-9 -75 -2 90 c-1 87 0 92 30
128 21 26 28 43 24 57 -9 28 -29 25 -63 -10 l-30 -30 -36 50 c-36 50 -95 80
-130 67 -23 -9 -20 -34 5 -48 24 -12 72 -65 107 -115 20 -31 22 -44 22 -182 0
-140 1 -150 23 -180 28 -38 47 -82 77 -181 12 -40 34 -93 49 -117 26 -40 27
-47 19 -101 -5 -32 -16 -65 -23 -74 -26 -27 -25 -28 56 -169 39 -67 43 -82 45
-145 1 -38 6 -90 11 -115 11 -58 -2 -142 -39 -253 -25 -76 -28 -93 -19 -139 5
-28 8 -57 6 -62 -2 -6 -6 -23 -9 -38 -4 -15 -20 -40 -36 -55 -22 -21 -33 -43
-41 -88 -6 -32 -19 -70 -30 -83 -24 -31 -24 -38 5 -98 13 -27 22 -51 20 -53
-8 -9 -87 87 -109 135 -38 77 -75 276 -80 423 -2 69 -7 148 -11 175 l-6 49 27
-21 c44 -35 50 -25 13 21 -20 23 -46 71 -59 107 -18 51 -39 82 -96 143 -104
111 -126 163 -153 356 -7 51 -27 123 -50 180 -51 129 -99 283 -107 340 -3 25
-14 62 -24 82 -10 21 -21 72 -25 125 -4 51 -17 117 -30 155 -23 63 -23 68 -8
104 13 33 14 47 3 100 -12 60 -11 63 14 101 15 21 27 47 27 57 0 10 -18 40
-39 67 -22 27 -42 63 -46 80 -5 22 -14 32 -33 36 -15 3 -45 10 -67 16 -21 5
-67 7 -101 3 -40 -4 -64 -3 -69 4 -7 13 -97 13 -139 1z"/>
<path d="M1020 3590 c-14 -4 -19 -8 -12 -9 6 -1 12 -12 12 -26 0 -71 65 -119
123 -90 32 16 57 7 57 -21 0 -8 5 -14 10 -14 15 0 12 23 -6 49 -16 22 -16 22
11 19 42 -5 51 -28 36 -90 -25 -98 -91 -227 -150 -290 -13 -16 -21 -28 -15
-28 5 0 22 18 38 40 21 28 35 38 47 35 21 -7 34 11 21 28 -7 8 -1 31 19 75 39
83 64 180 55 215 -5 23 -11 27 -44 27 -29 0 -39 5 -47 23 -7 15 -19 22 -40 24
-16 0 -37 2 -46 2 -8 1 -24 8 -35 16 -17 13 -9 14 79 15 89 0 97 -2 97 -19 0
-27 17 -35 28 -15 14 24 50 1 60 -38 5 -21 10 -27 14 -18 9 25 -10 59 -44 80
-28 17 -49 20 -138 19 -58 -1 -116 -5 -130 -9z"/>
<path d="M1407 3574 c-13 -13 -7 -24 14 -24 11 0 19 5 17 12 -5 14 -22 21 -31
12z"/>
<path d="M810 3551 c-14 -28 -12 -46 7 -62 15 -13 15 -12 3 8 -11 17 -11 27
-2 47 13 30 8 35 -8 7z"/>
<path d="M916 3463 c-11 -11 -6 -23 9 -23 8 0 15 4 15 9 0 13 -16 22 -24 14z"/>
<path d="M680 3405 c-10 -12 -9 -16 5 -21 23 -9 40 10 22 25 -11 9 -17 8 -27
-4z"/>
<path d="M1015 3200 c-4 -6 -24 -19 -46 -31 -65 -33 -79 -52 -79 -109 0 -48
-2 -52 -32 -65 -32 -14 -32 -14 -7 -15 14 0 34 9 44 20 9 10 40 27 67 36 51
17 59 27 85 110 14 43 -12 86 -32 54z"/>
<path d="M1074 3175 c-9 -23 10 -40 25 -22 9 11 8 17 -4 27 -12 10 -16 9 -21
-5z"/>
<path d="M667 3050 c-19 -45 -22 -111 -7 -141 6 -11 21 -19 36 -19 13 0 36 -7
49 -16 23 -15 51 -11 40 5 -2 5 8 11 23 14 15 3 35 9 45 13 17 6 18 5 6 -14
-12 -19 -11 -24 3 -38 16 -16 18 -15 29 10 11 23 10 29 -1 36 -17 11 -19 9 48
53 28 20 52 31 52 26 0 -5 6 -9 13 -8 39 5 65 -2 63 -17 0 -9 5 -19 12 -21 7
-3 12 5 12 20 0 18 7 28 22 33 22 7 47 31 48 47 0 17 -76 5 -119 -19 l-46 -27
35 38 35 38 -60 -46 c-67 -51 -197 -117 -232 -117 -33 0 -30 38 5 68 22 19 23
21 4 12 -25 -12 -42 -6 -42 16 0 8 -4 14 -10 14 -5 0 -10 7 -10 15 0 18 -21
65 -29 65 -4 0 -14 -18 -24 -40z"/>
<path d="M1227 3004 c-4 -4 -7 -16 -7 -26 0 -10 -16 -34 -35 -54 -19 -19 -35
-41 -35 -49 0 -21 -14 -19 -35 5 -10 11 -31 20 -47 20 -16 0 -40 7 -53 16 -15
10 -25 12 -25 6 0 -6 9 -16 21 -22 11 -7 25 -24 30 -38 5 -15 19 -33 30 -40
17 -11 25 -11 44 2 30 20 31 20 39 0 3 -8 -1 -28 -9 -44 -17 -33 -19 -50 -6
-50 4 0 12 15 17 33 8 28 14 32 47 35 32 3 40 9 57 42 11 22 20 56 20 77 0 57
-32 108 -53 87z"/>
<path d="M1125 2970 c-4 -6 -3 -16 3 -22 6 -6 12 -6 17 2 4 6 3 16 -3 22 -6 6
-12 6 -17 -2z"/>
<path d="M1192 2763 c-9 -16 -8 -24 2 -32 21 -18 40 10 22 34 -13 18 -14 18
-24 -2z"/>
<path d="M1045 2642 c5 -27 -1 -42 -40 -99 -41 -59 -43 -63 -12 -28 20 22 36
43 37 48 0 4 5 7 11 7 12 0 11 -21 -10 -165 -5 -39 -13 -78 -17 -88 -4 -13 -1
-17 14 -17 13 0 33 18 56 50 45 63 47 103 7 187 -30 62 -30 62 -10 87 10 13
19 30 19 38 0 7 -9 2 -20 -12 -15 -20 -20 -21 -20 -8 0 9 -5 20 -11 24 -8 4
-9 -3 -4 -24z"/>
<path d="M1102 2639 c-11 -18 -11 -24 4 -40 13 -14 21 -16 35 -8 22 11 25 39
7 57 -17 17 -31 15 -46 -9z"/>
<path d="M895 2448 c-20 -16 -39 -21 -70 -19 -30 1 -49 -4 -69 -20 -18 -14
-24 -24 -16 -29 7 -5 5 -21 -10 -54 -23 -55 -25 -70 -7 -63 8 3 12 -9 13 -41
2 -62 25 -79 66 -49 20 15 28 27 24 42 -5 20 28 75 38 64 4 -3 0 -21 -8 -40
-20 -50 -30 -119 -17 -119 6 0 11 11 11 25 0 41 30 118 63 160 51 66 52 73 3
20 -36 -38 -46 -45 -46 -30 0 11 -3 37 -6 58 -6 35 -4 40 36 77 46 42 42 55
-5 18z"/>
<path d="M923 2135 c-16 -18 -16 -21 3 -50 l16 -25 20 26 c19 24 19 26 3 44
-21 23 -26 24 -42 5z"/>
</g>
</svg>
