<?xml version="1.0" encoding="UTF-8" standalone="no"?>
<svg xmlns="http://www.w3.org/2000/svg" width="19.579428mm" height="14.287501mm" viewBox="0 0 19.57943 14.287501" version="1.1">
  <path d="M 0.26458335,0.26459009 V 1.3231839 c 0,2.4694445 1.36940105,3.9221353 2.42773435,4.9804687 l 0.7480469,0.75 L 4.9364583,5.5556057 4.1884115,4.8075589 C 3.1300781,3.7492254 2.3817708,3.0870729 2.3817709,1.3231839 V 0.26459009 Z" style="color:#000000;fill-opacity:1;stroke-width:0.5291667;stroke-linecap:square;stroke-linejoin:miter;stroke-miterlimit:4;stroke-opacity:1;paint-order:markers stroke fill;" class="primary" fill="#987408" stroke="#ffffff"/>
  <path d="M 19.314845,0.26458335 V 1.3231772 c 0,2.4694445 -1.369401,3.9221354 -2.427734,4.9804688 L 16.139064,7.0536459 14.642971,5.555599 15.391017,4.8075523 C 16.44935,3.7492187 17.197658,3.0870663 17.197658,1.3231772 V 0.26458335 Z" style="color:#000000;fill-opacity:1;stroke-width:0.5291667;stroke-linecap:square;stroke-linejoin:miter;stroke-miterlimit:4;stroke-opacity:1;paint-order:markers stroke fill;" class="primary" fill="#987408" stroke="#ffffff"/>
  <path d="M 3.4398439,14.022917 2.3815105,12.964584 3.4398439,3.4395836 4.4981773,2.3812502 H 15.081511 l 1.058334,1.0583334 1.058333,9.5250004 -1.024338,1.058334 c 0,0 -8.1415159,2e-6 -12.7339961,-1e-6" style="fill-opacity:1;stroke-width:0.5291667;stroke-miterlimit:4;stroke-opacity:1;paint-order:fill markers stroke" class="primary" fill="#987408" stroke="#ffffff"/>
  <path d="m 3.4398439,3.4395836 c 0,2.1166668 3.1750002,4.2333336 6.3500004,4.2333336 2.0998077,0 6.3500007,-2.1166668 6.3500007,-4.2333336" style="fill:none;fill-opacity:1;stroke-width:0.5291667;stroke-linecap:round;stroke-miterlimit:4;stroke-opacity:1;paint-order:stroke fill markers" class="primary" stroke="#ffffff"/>
  <path d="M 8.7315109,8.7312507 V 6.6145839 H 10.848178 V 8.7312507 H 8.7315109" style="fill-opacity:1;stroke-width:0.5291667;stroke-linecap:square;stroke-miterlimit:4;stroke-opacity:1;paint-order:fill markers stroke" class="primary" fill="#987408" stroke="#ffffff"/>
</svg>