<?xml version="1.0" encoding="UTF-8" standalone="no"?>
<!-- Created with Inkscape (http://www.inkscape.org/) -->

<svg
   xmlns:dc="http://purl.org/dc/elements/1.1/"
   xmlns:cc="http://creativecommons.org/ns#"
   xmlns:rdf="http://www.w3.org/1999/02/22-rdf-syntax-ns#"
   xmlns:svg="http://www.w3.org/2000/svg"
   xmlns="http://www.w3.org/2000/svg"
   xmlns:sodipodi="http://sodipodi.sourceforge.net/DTD/sodipodi-0.dtd"
   xmlns:inkscape="http://www.inkscape.org/namespaces/inkscape"
   width="15.39428mm"
   height="15.715445mm"
   viewBox="0 0 15.394281 15.715445"
   version="1.1"
   id="svg8"
   sodipodi:docname="mana.svg"
   inkscape:version="0.92+devel unknown">
  <defs
     id="defs2" />
  <sodipodi:namedview
     id="base"
     pagecolor="#ffffff"
     bordercolor="#666666"
     borderopacity="1.0"
     inkscape:pageopacity="0.0"
     inkscape:pageshadow="2"
     inkscape:zoom="5.6"
     inkscape:cx="50.169104"
     inkscape:cy="30.28109"
     inkscape:document-units="mm"
     inkscape:current-layer="layer1"
     inkscape:document-rotation="0"
     showgrid="true"
     units="mm"
     inkscape:window-width="1366"
     inkscape:window-height="741"
     inkscape:window-x="0"
     inkscape:window-y="27"
     inkscape:window-maximized="1"
     fit-margin-top="0"
     fit-margin-left="0"
     fit-margin-right="0"
     fit-margin-bottom="0"
     scale-x="1">
    <inkscape:grid
       type="xygrid"
       id="grid10"
       empspacing="4"
       spacingx="0.26458335"
       spacingy="0.26458335"
       originx="-8.3670248"
       originy="-5.1328935"
       visible="true" />
  </sodipodi:namedview>
  <metadata
     id="metadata5">
    <rdf:RDF>
      <cc:Work
         rdf:about="">
        <dc:format>image/svg+xml</dc:format>
        <dc:type
           rdf:resource="http://purl.org/dc/dcmitype/StillImage" />
        <dc:title></dc:title>
      </cc:Work>
    </rdf:RDF>
  </metadata>
  <g
     inkscape:label="Layer 1"
     inkscape:groupmode="layer"
     id="layer1"
     transform="translate(-8.3670213,-276.15165)">
    <path
       style="fill:#650fbe;fill-opacity:1;stroke-width:2.11666656"
       d="m 10.050819,290.1833 c -2.2450636,-2.24507 -2.2450637,-6.73519 0,-8.98026 2.993417,-2.99341 6.36101,-1.12253 8.606074,-3.36759 5e-6,2.99342 -5.034846,4.33923 -4.115951,4.86431 2.61924,1.49671 3.554689,-2.43216 6.173925,-3.92886 1.237097,-0.70692 1.496713,-0.37418 2.99342,-2.61925 -4e-6,3.74178 -7.483546,8.2319 -6.361015,9.35444 1.309619,1.30963 5.238485,-4.49013 6.361018,-6.36102 -0.748353,2.99342 0.561265,-0.18709 -0.187087,2.05797 -0.374186,1.12255 -1.122533,1.87089 -2.245068,5.2385 -0.374181,1.12252 -0.748355,2.24506 -2.245059,3.74176 -2.245064,2.24506 -6.735192,2.24506 -8.980257,0 z"
       id="path103"
       inkscape:connector-curvature="0"
       sodipodi:nodetypes="sscsscscssss" />
  </g>
</svg>
