<?xml version="1.0" encoding="UTF-8" standalone="no"?>
<svg
   xmlns:dc="http://purl.org/dc/elements/1.1/"
   xmlns:cc="http://creativecommons.org/ns#"
   xmlns:rdf="http://www.w3.org/1999/02/22-rdf-syntax-ns#"
   xmlns:svg="http://www.w3.org/2000/svg"
   xmlns="http://www.w3.org/2000/svg"
   id="svg8"
   version="1.1"
   viewBox="0 0 32.211489 32.211885"
   height="121.7457"
   width="121.74421">
  <defs
     id="defs2" />
  <metadata
     id="metadata5">
    <rdf:RDF>
      <cc:Work
         rdf:about="">
        <dc:format>image/svg+xml</dc:format>
        <dc:type
           rdf:resource="http://purl.org/dc/dcmitype/StillImage" />
        <dc:title></dc:title>
      </cc:Work>
    </rdf:RDF>
  </metadata>
  <g
     transform="translate(-0.82756737,-260.25672)"
     id="layer1">
    <path
       id="path14"
       d="m 1.2178842,289.08452 2.2458412,-2.24585 c 0.1863092,-0.1863 0.3734004,-0.74757 0.3733976,-1.12175 v -4.49013 c 5e-6,-0.37418 0.1870892,-0.93544 0.3741825,-1.12253 l 3.7417687,-3.74177 c 0.1870934,-0.18709 0.1870906,-0.56127 2.1e-6,-0.74836 l -0.7483548,-0.74835 c -0.1870886,-0.18709 -0.1870909,-0.56127 2.3e-6,-0.74836 l 1.4967046,-1.4967 c 0.1870936,-0.1871 0.5612685,-0.1871 0.7483571,-1e-5 l 2.6192415,2.61924 3.741776,-3.74177 c 0,0 0.748352,-0.74835 1.496706,0 0.748355,0.74835 2e-6,1.49671 2e-6,1.49671 l -3.741775,3.74177 2.993418,2.99342 3.741776,-3.74177 c 0,0 0.748352,-0.74836 1.496707,0 0.748355,0.74835 3e-6,1.49671 3e-6,1.49671 l -3.741776,3.74177 2.619241,2.61924 c 0.18709,0.18709 0.187092,0.56127 -2e-6,0.74836 l -1.496704,1.4967 c -0.187093,0.1871 -0.561269,0.1871 -0.748358,10e-6 l -0.748353,-0.74836 c -0.18709,-0.18709 -0.561264,-0.18709 -0.754002,0.006 l -3.736124,3.73612 c -0.187094,0.1871 -0.748355,0.37418 -1.122537,0.37419 H 7.5788966 c -0.3741747,-10e-6 -0.9354435,0.18708 -1.1257408,0.37738 l -2.2418531,2.24185 c -0.1870863,0.18709 -0.5612681,0.1871 -0.7483573,10e-6 l -2.2450633,-2.24507 c -0.1870891,-0.18709 -0.1870842,-0.56127 2.1e-6,-0.74835"
       style="fill:#3d3dd4;fill-opacity:1;stroke:#ffffff;stroke-width:0.5;stroke-miterlimit:4;stroke-dasharray:none;stroke-opacity:1" />
    <path
       id="path14-6"
       d="m 29.655364,260.64704 -2.245842,2.24584 c -0.186308,0.18631 -0.747576,0.3734 -1.121752,0.37339 h -4.490128 c -0.374181,10e-6 -0.935443,0.18709 -1.122536,0.37419 l -3.741769,3.74177 c -0.187093,0.18709 -0.561268,0.18709 -0.748357,0 l -1.122532,-1.12253 c -0.187088,-0.18709 -0.561263,-0.18709 -0.748357,0 l -1.496705,1.4967 c -0.187092,0.1871 -0.18709,0.56127 -2e-6,0.74836 l 11.973674,11.97367 c 0.18709,0.18709 0.561265,0.1871 0.748358,0 l 1.496705,-1.4967 c 0.187093,-0.1871 0.187091,-0.56127 10e-7,-0.74836 l -1.122531,-1.12253 c -0.187089,-0.18709 -0.187092,-0.56127 0.0056,-0.754 l 3.736127,-3.73613 c 0.187094,-0.18709 0.374178,-0.74835 0.374183,-1.12253 v -4.49013 c -3e-6,-0.37418 0.187088,-0.93545 0.377384,-1.12574 l 2.241854,-2.24186 c 0.187086,-0.18708 0.187092,-0.56126 2e-6,-0.74835 l -2.245062,-2.24507 c -0.18709,-0.18709 -0.561271,-0.18708 -0.748358,1e-5"
       style="fill:#3d3dd4;fill-opacity:1;stroke:#ffffff;stroke-width:0.5;stroke-miterlimit:4;stroke-dasharray:none;stroke-opacity:1" />
  </g>
</svg>
