<?xml version="1.0" encoding="UTF-8" standalone="no"?>
<svg
   xmlns:dc="http://purl.org/dc/elements/1.1/"
   xmlns:cc="http://creativecommons.org/ns#"
   xmlns:rdf="http://www.w3.org/1999/02/22-rdf-syntax-ns#"
   xmlns:svg="http://www.w3.org/2000/svg"
   xmlns="http://www.w3.org/2000/svg"
   id="svg8"
   version="1.1"
   viewBox="0 0 27.347183 27.347579"
   height="103.36092"
   width="103.35943">
  <defs
     id="defs2" />
  <metadata
     id="metadata5">
    <rdf:RDF>
      <cc:Work
         rdf:about="">
        <dc:format>image/svg+xml</dc:format>
        <dc:type
           rdf:resource="http://purl.org/dc/dcmitype/StillImage" />
        <dc:title></dc:title>
      </cc:Work>
    </rdf:RDF>
  </metadata>
  <g
     transform="translate(-3.2597213,-266.12846)"
     id="layer1">
    <path
       id="path14"
       d="m 3.6500381,290.09195 2.2458412,-2.24585 c 0.1863092,-0.1863 0.3734004,-0.74757 0.3733976,-1.12175 v -4.49013 c 4.9e-6,-0.37418 0.1870891,-0.93544 0.3741825,-1.12253 l 3.7417686,-3.74177 c 0.187093,-0.18709 0.187091,-0.56127 2e-6,-0.74836 l -0.7483547,-0.74835 c -0.1870885,-0.18709 -0.1870909,-0.56127 2.4e-6,-0.74836 l 1.4967043,-1.4967 c 0.187094,-0.1871 0.561269,-0.18709 0.748357,-1e-5 l 2.619242,2.61925 3.741775,-3.74178 c 0,0 0.748353,-0.74835 1.496707,0 0.748355,0.74836 2e-6,1.49671 2e-6,1.49671 l -3.741775,3.74177 2.993418,2.99342 3.741776,-3.74177 c 0,0 0.748352,-0.74836 1.496707,0 0.748355,0.74835 2e-6,1.49671 2e-6,1.49671 l -3.741775,3.74177 2.619241,2.61924 c 0.187089,0.18709 0.187092,0.56127 -2e-6,0.74836 l -1.496705,1.49671 c -0.187092,0.18709 -0.561268,0.18709 -0.748357,0 l -0.748354,-0.74836 c -0.187089,-0.18709 -0.561263,-0.18709 -0.754001,0.006 l -3.736124,3.73612 c -0.187094,0.1871 -0.748355,0.37418 -1.122537,0.37419 h -4.490128 c -0.3741752,-10e-6 -0.9354441,0.18709 -1.1257414,0.37738 l -2.241853,2.24186 c -0.1870863,0.18708 -0.5612681,0.18709 -0.7483573,0 L 3.650036,290.8403 c -0.1870891,-0.18708 -0.1870842,-0.56127 2.1e-6,-0.74835"
       style="fill:#22c422;fill-opacity:1;stroke:#ffffff;stroke-width:0.5;stroke-miterlimit:4;stroke-dasharray:none;stroke-opacity:1" />
    <path
       id="path14-6"
       d="m 27.22321,266.51877 -2.245842,2.24585 c -0.186308,0.1863 -0.747576,0.3734 -1.121751,0.37339 h -4.490129 c -0.374181,10e-6 -0.935442,0.18709 -1.122536,0.37419 l -3.741768,3.74176 c -0.187094,0.1871 -0.561269,0.1871 -0.748358,10e-6 l -1.122532,-1.12254 c -0.187088,-0.18708 -0.561263,-0.18709 -0.748357,10e-6 l -1.496705,1.4967 c -0.187092,0.1871 -0.18709,0.56127 -2e-6,0.74836 l 11.973674,11.97367 c 0.18709,0.18709 0.561265,0.18709 0.748358,0 l 1.496705,-1.4967 c 0.187093,-0.1871 0.187091,-0.56127 10e-7,-0.74836 l -1.122531,-1.12253 c -0.187089,-0.18709 -0.187091,-0.56127 0.0056,-0.754 l 3.736128,-3.73613 c 0.187093,-0.18709 0.374177,-0.74835 0.374182,-1.12253 v -4.49013 c -3e-6,-0.37418 0.187088,-0.93545 0.377384,-1.12574 l 2.241854,-2.24186 c 0.187087,-0.18708 0.187092,-0.56127 2e-6,-0.74835 l -2.245062,-2.24507 c -0.187089,-0.18709 -0.561271,-0.18708 -0.748358,0"
       style="fill:#22c422;fill-opacity:1;stroke:#ffffff;stroke-width:0.5;stroke-miterlimit:4;stroke-dasharray:none;stroke-opacity:1" />
  </g>
</svg>
