<?xml version="1.0" encoding="UTF-8" standalone="no"?>
<svg
   xmlns="http://www.w3.org/2000/svg"
   version="1.1"
   viewBox="0 0 487.2308 469.90024">
  <path
     transform="translate(-9.7750645,-11.337001)"
     style="fill:#000000;fill-opacity:1;stroke:#ffffff;stroke-width:23.70000076;stroke-linejoin:round;stroke-miterlimit:4;stroke-dasharray:none;stroke-opacity:1;paint-order:markers stroke fill"
     id="path4"
     d="m 245.813,23.188 c -1.228,-0.006 -2.455,0.027 -3.657,0.093 -10.103,0.56 -19.646,3.682 -30.156,11.25 l 20.72,196.782 c -8.394,2.127 -16.676,4.47 -24.814,7.094 L 137.72,57.812 c -7.032,-1.706 -17.442,-0.3 -27.126,4.626 -10.248,5.213 -19.034,13.84 -22.813,22.937 L 155.03,261.5 c -7.414,4.345 -14.59,9.137 -21.5,14.47 L 59.187,181.72 c -16.34,0.698 -34.965,14.455 -37.562,32.655 7.265,8.318 72.353,83.395 104.375,143.03 10.3,19.184 29.543,50.725 39.188,70.064 5.83,11.693 16.004,24.238 27.843,32.342 11.84,8.104 24.7,11.82 37.907,8.282 l 112.907,-30.22 c 5.493,-1.47 9.196,-5.39 13.22,-11.937 4.02,-6.545 7.535,-15.137 12.905,-23 20.61,-30.185 50.432,-76.085 115.186,-112.062 -2.696,-15.053 -7.405,-24.57 -12.72,-29.563 -6.03,-5.667 -13.198,-7.372 -23.686,-5.843 -18.062,2.63 -43.498,17.063 -69.594,36.874 -1.68,1.39 -3.318,2.802 -4.937,4.22 l -7,-61.252 42.5,-155.718 C 405.241,72.237 395.913,66.334 384.874,63.622 374,60.952 362.368,61.924 354.594,65.217 l -38.75,149.874 c -9.365,1.58 -18.732,3.17 -28.064,4.812 L 273.69,27.5 c -10.057,-2.52 -19.284,-4.272 -27.875,-4.313 z"
     fill="#fff" />
  <path
     class="inv-primary"
     transform="rotate(49.650285,266.42364,333.4738)"
     d="m 280.78697,399.55863 -35.56997,-26.57592 -42.05776,14.23539 14.28348,-42.04146 -26.53522,-35.60032 44.39763,0.59287 25.65809,-36.23761 13.15578,42.40787 42.39279,13.20426 -36.26692,25.61663 z"
     id="path823"
     style="fill:#ffffff;fill-opacity:1;stroke:none;stroke-width:23.70000076;stroke-linecap:square;stroke-linejoin:round;stroke-miterlimit:4;stroke-dasharray:none;stroke-opacity:1;paint-order:markers stroke fill" />
</svg>
