<?xml version="1.0" encoding="UTF-8" standalone="no"?>
<svg
   xmlns:dc="http://purl.org/dc/elements/1.1/"
   xmlns:cc="http://creativecommons.org/ns#"
   xmlns:rdf="http://www.w3.org/1999/02/22-rdf-syntax-ns#"
   xmlns:svg="http://www.w3.org/2000/svg"
   xmlns="http://www.w3.org/2000/svg"
   xmlns:sodipodi="http://sodipodi.sourceforge.net/DTD/sodipodi-0.dtd"
   xmlns:inkscape="http://www.inkscape.org/namespaces/inkscape"
   viewBox="0 0 487.2308 469.90024"
   version="1.1"
   id="svg8"
   sodipodi:docname="primary.svg"
   width="487.2308"
   height="469.90024"
   inkscape:version="0.92+devel unknown">
  <metadata
     id="metadata14">
    <rdf:RDF>
      <cc:Work
         rdf:about="">
        <dc:format>image/svg+xml</dc:format>
        <dc:type
           rdf:resource="http://purl.org/dc/dcmitype/StillImage" />
        <dc:title></dc:title>
      </cc:Work>
    </rdf:RDF>
  </metadata>
  <defs
     id="defs12" />
  <sodipodi:namedview
     pagecolor="#ffffff"
     bordercolor="#666666"
     inkscape:document-rotation="0"
     borderopacity="1"
     objecttolerance="10"
     gridtolerance="10"
     guidetolerance="10"
     inkscape:pageopacity="0"
     inkscape:pageshadow="2"
     inkscape:window-width="1366"
     inkscape:window-height="741"
     id="namedview10"
     showgrid="false"
     fit-margin-top="0"
     fit-margin-left="0"
     fit-margin-right="0"
     fit-margin-bottom="0"
     inkscape:zoom="1.0429688"
     inkscape:cx="400.11258"
     inkscape:cy="214.69042"
     inkscape:window-x="0"
     inkscape:window-y="27"
     inkscape:window-maximized="1"
     inkscape:current-layer="svg8" />
  <g
     class=""
     id="g6"
     transform="translate(-9.7750645,-11.337001)">
    <path
       fill="#fff"
       d="m 245.813,23.188 c -1.228,-0.006 -2.455,0.027 -3.657,0.093 -10.103,0.56 -19.646,3.682 -30.156,11.25 l 20.72,196.782 c -8.394,2.127 -16.676,4.47 -24.814,7.094 L 137.72,57.812 c -7.032,-1.706 -17.442,-0.3 -27.126,4.626 -10.248,5.213 -19.034,13.84 -22.813,22.937 L 155.03,261.5 c -7.414,4.345 -14.59,9.137 -21.5,14.47 L 59.187,181.72 c -16.34,0.698 -34.965,14.455 -37.562,32.655 7.265,8.318 72.353,83.395 104.375,143.03 10.3,19.184 29.543,50.725 39.188,70.064 5.83,11.693 16.004,24.238 27.843,32.342 11.84,8.104 24.7,11.82 37.907,8.282 l 112.907,-30.22 c 5.493,-1.47 9.196,-5.39 13.22,-11.937 4.02,-6.545 7.535,-15.137 12.905,-23 20.61,-30.185 50.432,-76.085 115.186,-112.062 -2.696,-15.053 -7.405,-24.57 -12.72,-29.563 -6.03,-5.667 -13.198,-7.372 -23.686,-5.843 -18.062,2.63 -43.498,17.063 -69.594,36.874 -1.68,1.39 -3.318,2.802 -4.937,4.22 l -7,-61.252 42.5,-155.718 C 405.241,72.237 395.913,66.334 384.874,63.622 374,60.952 362.368,61.924 354.594,65.217 l -38.75,149.874 c -9.365,1.58 -18.732,3.17 -28.064,4.812 L 273.69,27.5 c -10.057,-2.52 -19.284,-4.272 -27.875,-4.313 z"
       id="path4"
       style="fill:#000000;fill-opacity:1;stroke:#ffffff;stroke-width:23.70000076;stroke-linejoin:round;stroke-miterlimit:4;stroke-dasharray:none;stroke-opacity:1;paint-order:markers stroke fill"
       inkscape:connector-curvature="0"
       sodipodi:nodetypes="ccccccccccccccccccccccccccccccccc" />
  </g>
  <path
     sodipodi:type="star"
     style="fill:#ffffff;fill-opacity:1;stroke:none;stroke-width:23.70000076;stroke-linecap:square;stroke-linejoin:round;stroke-miterlimit:4;stroke-dasharray:none;stroke-opacity:1;paint-order:markers stroke fill"
     id="path823"
     sodipodi:sides="5"
     sodipodi:cx="250.46574"
     sodipodi:cy="339.96567"
     sodipodi:r1="66.863274"
     sodipodi:r2="33.431637"
     sodipodi:arg1="1.1001292"
     sodipodi:arg2="1.7284478"
     inkscape:flatsided="false"
     inkscape:rounded="0"
     inkscape:randomized="0"
     d="m 280.78697,399.55863 -35.56997,-26.57592 -42.05776,14.23539 14.28348,-42.04146 -26.53522,-35.60032 44.39763,0.59287 25.65809,-36.23761 13.15578,42.40787 42.39279,13.20426 -36.26692,25.61663 z"
     inkscape:transform-center-x="4.7592096"
     inkscape:transform-center-y="-1.6869065"
     transform="rotate(49.650285,266.42364,333.4738)" />
  <!-- react-empty: 6 -->
</svg>
