<?xml version="1.0" encoding="UTF-8" standalone="no"?>
<svg xmlns="http://www.w3.org/2000/svg" version="1.1" viewBox="0 0 66.337112 65.872745" height="66.337105mm" width="66.337112mm">
  <g transform="translate(-16.175643,-211.27414)">
    <path d="m 36.497291,257.05742 1.414214,7.07107 41.012193,-38.18377 2.828427,-14.14213 z" style="fill-opacity:1;stroke-width:0.5;stroke-opacity:1" class="primary" fill="#000000" stroke="#ffffff"/>
    <path d="m 29.426223,255.64321 7.071068,1.41421 45.254834,-45.25483 -14.142135,2.82842 z" style="fill-opacity:1;stroke-width:0.5;stroke-opacity:1" class="primary" fill="#808080" stroke="#ffffff"/>
    <path d="m 22.355156,248.57214 c 0.87104,-0.3608 2.16176,-0.66667 2.828427,0 0.666666,0.66667 -0.495667,2.02643 0,2.82843 2.216679,3.58665 11.313708,5.65685 11.313708,5.65685 0,0 2.070198,9.09703 5.656854,11.31371 0.801999,0.49567 2.161761,-0.66667 2.828428,0 0.666667,0.66667 0.360797,1.95739 10e-7,2.82843 -0.255123,0.61592 -0.799525,1.15615 -1.414215,1.41421 -0.86111,0.36152 -1.937093,0.38007 -2.801621,0.0268 -3.097363,-1.26565 -7.097875,-7.09788 -7.097875,-7.09788 l -8.48528,5.65686 c 0,0 0.360795,1.95738 -10e-7,2.82842 -0.510245,1.23184 -1.596588,2.31818 -2.828427,2.82843 -0.87104,0.3608 -1.957383,0.3608 -2.828426,0 -1.231836,-0.51025 -2.318179,-1.59659 -2.828427,-2.82843 -0.360796,-0.87104 -0.360796,-1.95738 -1e-6,-2.82842 0.510245,-1.23184 1.596587,-2.31819 2.828427,-2.82843 0.871041,-0.3608 2.828428,0 2.828428,0 l 5.656854,-8.48528 c 0,0 -5.795456,-3.99147 -7.071068,-7.07107 -0.360796,-0.87104 -0.360796,-1.95739 0,-2.82843 0.255123,-0.61592 0.798294,-1.15909 1.414214,-1.41421 z" style="fill-opacity:1;stroke-width:0.5;stroke-opacity:1" class="primary" fill="#000000" stroke="#ffffff"/>
  </g>
</svg>