<?xml version="1.0" encoding="UTF-8" standalone="no"?>
<svg xmlns="http://www.w3.org/2000/svg" version="1.1" viewBox="0 0 34.830727 34.831128" height="131.6452" width="131.64369">
  <g transform="translate(0.48205092,-257.09502)">
    <path d="m -0.09173407,288.54205 2.24584117,-2.24584 c 0.1863092,-0.18631 0.3734004,-0.74757 0.3733976,-1.12175 v -4.49013 c 5e-6,-0.37418 0.1870891,-0.93544 0.3741825,-1.12253 l 3.7417687,-3.74177 c 0.1870934,-0.1871 0.1870906,-0.56127 2.1e-6,-0.74836 l -0.7483548,-0.74835 c -0.1870886,-0.18709 -0.187091,-0.56127 2.3e-6,-0.74836 l 1.4967046,-1.49671 c 0.1870936,-0.18709 0.5612685,-0.18709 0.7483571,0 l 2.6192418,2.61924 3.741775,-3.74177 c 0,0 0.748353,-0.74836 1.496707,0 0.748354,0.74835 2e-6,1.49671 2e-6,1.49671 l -3.741776,3.74177 2.993419,2.99342 3.741776,-3.74178 c 0,0 0.748352,-0.74835 1.496707,1e-5 0.748355,0.74835 2e-6,1.4967 2e-6,1.4967 l -3.741776,3.74178 2.619242,2.61924 c 0.187089,0.18709 0.187092,0.56127 -2e-6,0.74836 l -1.496705,1.4967 c -0.187092,0.1871 -0.561268,0.18709 -0.748357,0 l -0.748354,-0.74835 c -0.187089,-0.18709 -0.561264,-0.18709 -0.754001,0.006 l -3.736125,3.73613 c -0.187093,0.1871 -0.748354,0.37418 -1.122537,0.37418 H 6.2692783 c -0.3741747,0 -0.9354436,0.18709 -1.1257408,0.37739 l -2.2418531,2.24185 c -0.1870863,0.18709 -0.5612681,0.18709 -0.7483573,0 l -2.24506329,-2.24506 c -0.18708914,-0.18709 -0.18708419,-0.56127 2.12e-6,-0.74836" style="fill-opacity:1;stroke-width:0.5;stroke-miterlimit:4;stroke-opacity:1" class="primary" fill="#f85d16" stroke="#ffffff"/>
    <path d="m 30.964983,257.48534 -2.245843,2.24584 c -0.186308,0.18631 -0.747576,0.3734 -1.121751,0.3734 h -4.490128 c -0.374182,0 -0.935443,0.18709 -1.122537,0.37418 l -3.741768,3.74177 c -0.187094,0.18709 -0.561269,0.18709 -0.748358,0 L 16.372067,263.098 c -0.187089,-0.18709 -0.561264,-0.18709 -0.748358,0 l -1.496704,1.4967 c -0.187093,0.1871 -0.187091,0.56127 -2e-6,0.74836 l 11.973673,11.97368 c 0.18709,0.18709 0.561265,0.18709 0.748358,-10e-6 l 1.496705,-1.4967 c 0.187093,-0.18709 0.187091,-0.56127 1e-6,-0.74836 l -1.122531,-1.12253 c -0.187088,-0.18709 -0.187091,-0.56126 0.0056,-0.754 l 3.736128,-3.73613 c 0.187093,-0.18709 0.374177,-0.74835 0.374182,-1.12253 v -4.49013 c -2e-6,-0.37418 0.187088,-0.93544 0.377385,-1.12574 l 2.241853,-2.24185 c 0.187087,-0.18709 0.187092,-0.56127 3e-6,-0.74836 l -2.245063,-2.24506 c -0.187089,-0.18709 -0.561271,-0.18709 -0.748357,0" style="fill-opacity:1;stroke-width:0.5;stroke-miterlimit:4;stroke-opacity:1" class="primary" fill="#f85d16" stroke="#ffffff"/>
  </g>
</svg>