<?xml version="1.0" encoding="UTF-8" standalone="no"?>
<svg xmlns="http://www.w3.org/2000/svg" version="1.1" viewBox="0 0 34.830727 34.831128" height="131.6452" width="131.64369">
  <g transform="translate(0.48205092,-257.09502)">
    <path d="m -0.09173407,288.54205 2.24584117,-2.24584 c 0.1863092,-0.18631 0.3734004,-0.74757 0.3733976,-1.12175 v -4.49013 c 5e-6,-0.37418 0.1870891,-0.93544 0.3741825,-1.12253 l 3.7417687,-3.74177 c 0.1870934,-0.1871 0.1870906,-0.56127 2.1e-6,-0.74836 l -0.7483548,-0.74835 c -0.1870886,-0.18709 -0.187091,-0.56127 2.3e-6,-0.74836 l 1.4967046,-1.49671 c 0.1870936,-0.18709 0.5612685,-0.18709 0.7483571,0 l 2.6192418,2.61924 3.741775,-3.74177 c 0,0 0.748353,-0.74836 1.496707,0 0.748354,0.74835 2e-6,1.49671 2e-6,1.49671 l -3.741776,3.74177 2.993419,2.99342 3.741776,-3.74178 c 0,0 0.748352,-0.74835 1.496707,1e-5 0.748355,0.74835 2e-6,1.4967 2e-6,1.4967 l -3.741776,3.74178 2.619242,2.61924 c 0.187089,0.18709 0.187092,0.56127 -2e-6,0.74836 l -1.496705,1.4967 c -0.187092,0.1871 -0.561268,0.18709 -0.748357,0 l -0.748354,-0.74835 c -0.187089,-0.18709 -0.561264,-0.18709 -0.754001,0.006 l -3.736125,3.73613 c -0.187093,0.1871 -0.748354,0.37418 -1.122537,0.37418 H 6.2692783 c -0.3741747,0 -0.9354436,0.18709 -1.1257408,0.37739 l -2.2418531,2.24185 c -0.1870863,0.18709 -0.5612681,0.18709 -0.7483573,0 l -2.24506329,-2.24506 c -0.18708914,-0.18709 -0.18708419,-0.56127 2.12e-6,-0.74836" style="fill-opacity:1;stroke-width:0.5;stroke-miterlimit:4;stroke-opacity:1" class="primary" fill="#f85d16" stroke="#ffffff"/>
    <g transform="translate(-0.16198054,-0.60625987)" style="font-style:normal;font-weight:normal;font-size:7.27604151px;line-height:125%;font-family:sans-serif;text-align:center;letter-spacing:0px;word-spacing:0px;text-anchor:middle;fill:#f85d16;fill-opacity:1;stroke:#ffffff;stroke-width:1;stroke-linecap:butt;stroke-linejoin:miter;stroke-opacity:1;stroke-miterlimit:4;stroke-dasharray:none;paint-order:stroke fill markers" aria-label="?">
      <path style="font-size:14.11111069px;font-family:Caladea;-inkscape-font-specification:Caladea;stroke-width:1;fill-opacity:1;stroke-opacity:1;stroke-miterlimit:4;paint-order:stroke fill markers" d="m 15.886352,264.99131 q -0.324555,0 -0.508,-0.254 -0.183444,-0.254 -0.183444,-0.69144 0,-0.45156 0.239889,-0.87489 0.254,-0.42334 0.606778,-0.71967 0.352777,-0.31044 0.705555,-0.60678 0.832556,-0.71966 0.832556,-1.62278 0,-0.46566 -0.338667,-0.74788 -0.324555,-0.28223 -0.818444,-0.28223 -0.987778,0 -0.987778,0.73378 0,0.23989 0.155222,0.508 -0.282222,0.40922 -0.677333,0.40922 -0.705556,0 -0.705556,-0.74789 0,-0.74788 0.649111,-1.11477 0.649111,-0.381 1.608667,-0.381 0.959555,0 1.594555,0.43744 0.635,0.42333 0.635,1.35467 0,0.53622 -0.239888,1.016 -0.225778,0.46566 -0.564445,0.79022 -0.324555,0.32456 -0.663222,0.635 -0.804333,0.71967 -0.804333,1.31233 0,0.28223 0.08467,0.62089 -0.282222,0.22578 -0.620889,0.22578 z m -0.606777,2.14489 q 0,-0.81845 0.747889,-0.81845 0.747888,0 0.747888,0.81845 0,0.81844 -0.747888,0.81844 -0.747889,0 -0.747889,-0.81844 z" class="primary" fill="#f85d16" stroke="#ffffff"/>
    </g>
    <g style="font-style:normal;font-weight:normal;font-size:7.27604151px;line-height:125%;font-family:sans-serif;text-align:center;letter-spacing:0px;word-spacing:0px;text-anchor:middle;fill:#f85d16;fill-opacity:1;stroke:#ffffff;stroke-width:1;stroke-linecap:butt;stroke-linejoin:miter;stroke-opacity:1;stroke-miterlimit:4;stroke-dasharray:none;paint-order:stroke fill markers" aria-label="?" transform="translate(12.758602,10.932612)">
      <path style="font-size:14.11111069px;font-family:Caladea;-inkscape-font-specification:Caladea;stroke-width:1;fill-opacity:1;stroke-opacity:1;stroke-miterlimit:4;paint-order:stroke fill markers" d="m 15.886352,264.99131 q -0.324555,0 -0.508,-0.254 -0.183444,-0.254 -0.183444,-0.69144 0,-0.45156 0.239889,-0.87489 0.254,-0.42334 0.606778,-0.71967 0.352777,-0.31044 0.705555,-0.60678 0.832556,-0.71966 0.832556,-1.62278 0,-0.46566 -0.338667,-0.74788 -0.324555,-0.28223 -0.818444,-0.28223 -0.987778,0 -0.987778,0.73378 0,0.23989 0.155222,0.508 -0.282222,0.40922 -0.677333,0.40922 -0.705556,0 -0.705556,-0.74789 0,-0.74788 0.649111,-1.11477 0.649111,-0.381 1.608667,-0.381 0.959555,0 1.594555,0.43744 0.635,0.42333 0.635,1.35467 0,0.53622 -0.239888,1.016 -0.225778,0.46566 -0.564445,0.79022 -0.324555,0.32456 -0.663222,0.635 -0.804333,0.71967 -0.804333,1.31233 0,0.28223 0.08467,0.62089 -0.282222,0.22578 -0.620889,0.22578 z m -0.606777,2.14489 q 0,-0.81845 0.747889,-0.81845 0.747888,0 0.747888,0.81845 0,0.81844 -0.747888,0.81844 -0.747889,0 -0.747889,-0.81844 z" class="primary" fill="#f85d16" stroke="#ffffff"/>
    </g>
    <g style="font-style:normal;font-weight:normal;font-size:7.27604151px;line-height:125%;font-family:sans-serif;text-align:center;letter-spacing:0px;word-spacing:0px;text-anchor:middle;fill:#f85d16;fill-opacity:1;stroke:#ffffff;stroke-width:1;stroke-linecap:butt;stroke-linejoin:miter;stroke-opacity:1;stroke-miterlimit:4;stroke-dasharray:none;paint-order:stroke fill markers" aria-label="?" transform="translate(7.4780098,2.1728791)">
      <path style="font-size:14.11111069px;font-family:Caladea;-inkscape-font-specification:Caladea;stroke-width:1;fill-opacity:1;stroke-opacity:1;stroke-miterlimit:4;paint-order:stroke fill markers" d="m 15.886352,264.99131 q -0.324555,0 -0.508,-0.254 -0.183444,-0.254 -0.183444,-0.69144 0,-0.45156 0.239889,-0.87489 0.254,-0.42334 0.606778,-0.71967 0.352777,-0.31044 0.705555,-0.60678 0.832556,-0.71966 0.832556,-1.62278 0,-0.46566 -0.338667,-0.74788 -0.324555,-0.28223 -0.818444,-0.28223 -0.987778,0 -0.987778,0.73378 0,0.23989 0.155222,0.508 -0.282222,0.40922 -0.677333,0.40922 -0.705556,0 -0.705556,-0.74789 0,-0.74788 0.649111,-1.11477 0.649111,-0.381 1.608667,-0.381 0.959555,0 1.594555,0.43744 0.635,0.42333 0.635,1.35467 0,0.53622 -0.239888,1.016 -0.225778,0.46566 -0.564445,0.79022 -0.324555,0.32456 -0.663222,0.635 -0.804333,0.71967 -0.804333,1.31233 0,0.28223 0.08467,0.62089 -0.282222,0.22578 -0.620889,0.22578 z m -0.606777,2.14489 q 0,-0.81845 0.747889,-0.81845 0.747888,0 0.747888,0.81845 0,0.81844 -0.747888,0.81844 -0.747889,0 -0.747889,-0.81844 z" class="primary" fill="#f85d16" stroke="#ffffff"/>
    </g>
  </g>
</svg>