<?xml version="1.0" encoding="UTF-8" standalone="no"?>
<!-- Created with Inkscape (http://www.inkscape.org/) -->

<svg
   xmlns:dc="http://purl.org/dc/elements/1.1/"
   xmlns:cc="http://creativecommons.org/ns#"
   xmlns:rdf="http://www.w3.org/1999/02/22-rdf-syntax-ns#"
   xmlns:svg="http://www.w3.org/2000/svg"
   xmlns="http://www.w3.org/2000/svg"
   xmlns:sodipodi="http://sodipodi.sourceforge.net/DTD/sodipodi-0.dtd"
   xmlns:inkscape="http://www.inkscape.org/namespaces/inkscape"
   width="100mm"
   height="100mm"
   viewBox="0 0 100 99.3"
   version="1.1"
   id="svg8"
   inkscape:version="0.92+devel unknown"
   sodipodi:docname="sword-icon.svg">
  <defs
     id="defs2" />
  <sodipodi:namedview
     id="base"
     pagecolor="#ffffff"
     bordercolor="#666666"
     borderopacity="1.0"
     inkscape:pageopacity="0.0"
     inkscape:pageshadow="2"
     inkscape:zoom="7.9195959"
     inkscape:cx="200.0391"
     inkscape:cy="111.68055"
     inkscape:document-units="mm"
     inkscape:current-layer="layer1"
     inkscape:document-rotation="0"
     showgrid="true"
     units="mm"
     viewbox-height="99.3"
     inkscape:window-width="1366"
     inkscape:window-height="741"
     inkscape:window-x="0"
     inkscape:window-y="27"
     inkscape:window-maximized="1">
    <inkscape:grid
       type="xygrid"
       id="grid5633"
       units="mm"
       spacingx="2"
       spacingy="1.986" />
  </sodipodi:namedview>
  <metadata
     id="metadata5">
    <rdf:RDF>
      <cc:Work
         rdf:about="">
        <dc:format>image/svg+xml</dc:format>
        <dc:type
           rdf:resource="http://purl.org/dc/dcmitype/StillImage" />
        <dc:title></dc:title>
      </cc:Work>
    </rdf:RDF>
  </metadata>
  <g
     inkscape:label="Layer 1"
     inkscape:groupmode="layer"
     id="layer1"
     transform="translate(0,-196.99995)">
    <path
       style="fill:#000000;fill-opacity:1;stroke:#ffffff;stroke-width:0.5;stroke-opacity:1"
       d="m 50,262.64995 6,4 2,-56 -8,-12 z"
       id="path5635"
       inkscape:connector-curvature="0"
       sodipodi:nodetypes="ccccc" />
    <path
       style="fill:#808080;fill-opacity:1;stroke:#ffffff;stroke-width:0.5;stroke-opacity:1"
       d="m 44,266.64995 6,-4 v -64 l -8,12 z"
       id="path5637"
       inkscape:connector-curvature="0"
       sodipodi:nodetypes="ccccc" />
    <path
       style="fill:#000000;stroke-width:0.5;stroke:#ffffff;stroke-opacity:1;fill-opacity:1"
       d="m 34,266.64995 c 0.360797,-0.87104 1.057191,-2 2,-2 0.942809,0 1.082412,1.78339 2,2 4.103578,0.96872 12,-4 12,-4 0,0 7.896422,4.96872 12,4 0.917588,-0.21661 1.057191,-2 2,-2 0.94281,0 1.639205,1.12896 2.000002,2 0.255122,0.61592 0.252171,1.38287 -2e-6,2 -0.353263,0.86453 -1.100983,1.63848 -1.96209,2 -3.085113,1.29522 -10.037911,0 -10.037911,0 l -1.999998,10 c 0,0 1.639201,1.12896 1.999998,2 0.510244,1.23184 0.510244,2.76816 0,4 -0.360797,0.87104 -1.128957,1.6392 -1.999998,2 -1.231839,0.51024 -2.768161,0.51024 -4,0 -0.871042,-0.3608 -1.639203,-1.12896 -2.000001,-2 -0.510245,-1.23184 -0.510245,-2.76816 0,-4 0.360798,-0.87104 2.000001,-2 2.000001,-2 L 46,270.64995 c 0,0 -6.920402,1.27561 -10,0 -0.871042,-0.3608 -1.639203,-1.12896 -2,-2 -0.255122,-0.61592 -0.255122,-1.38408 0,-2 z"
       id="path5639"
       inkscape:connector-curvature="0"
       sodipodi:nodetypes="ssscsssssccssssssccsss" />
  </g>
</svg>
