<?xml version="1.0" encoding="UTF-8" standalone="no"?>
<!-- Created with Inkscape (http://www.inkscape.org/) -->

<svg
   xmlns:dc="http://purl.org/dc/elements/1.1/"
   xmlns:cc="http://creativecommons.org/ns#"
   xmlns:rdf="http://www.w3.org/1999/02/22-rdf-syntax-ns#"
   xmlns:svg="http://www.w3.org/2000/svg"
   xmlns="http://www.w3.org/2000/svg"
   xmlns:sodipodi="http://sodipodi.sourceforge.net/DTD/sodipodi-0.dtd"
   xmlns:inkscape="http://www.inkscape.org/namespaces/inkscape"
   width="68"
   height="170.00002"
   viewBox="0 0 17.991667 44.979172"
   version="1.1"
   id="svg8"
   sodipodi:docname="unplugged.work.svg"
   inkscape:version="0.92+devel unknown">
  <defs
     id="defs2" />
  <sodipodi:namedview
     id="base"
     pagecolor="#ffffff"
     bordercolor="#666666"
     borderopacity="1.0"
     inkscape:pageopacity="0.0"
     inkscape:pageshadow="2"
     inkscape:zoom="3.959798"
     inkscape:cx="10.296374"
     inkscape:cy="122.30407"
     inkscape:document-units="mm"
     inkscape:current-layer="layer1"
     inkscape:document-rotation="0"
     showgrid="true"
     units="px"
     inkscape:window-width="1366"
     inkscape:window-height="741"
     inkscape:window-x="0"
     inkscape:window-y="27"
     inkscape:window-maximized="1"
     fit-margin-top="0"
     fit-margin-left="0"
     fit-margin-right="0"
     fit-margin-bottom="0">
    <inkscape:grid
       type="xygrid"
       id="grid10"
       empspacing="8"
       spacingx="0.26458334"
       spacingy="0.26458334"
       originx="-7.9375003"
       originy="3.3333334e-06" />
  </sodipodi:namedview>
  <metadata
     id="metadata5">
    <rdf:RDF>
      <cc:Work
         rdf:about="">
        <dc:format>image/svg+xml</dc:format>
        <dc:type
           rdf:resource="http://purl.org/dc/dcmitype/StillImage" />
        <dc:title></dc:title>
      </cc:Work>
    </rdf:RDF>
  </metadata>
  <g
     inkscape:label="Layer 1"
     inkscape:groupmode="layer"
     id="layer1"
     transform="translate(-7.9375002,-252.02082)">
    <path
       style="fill:#000000;stroke-width:2.11666656"
       d="m 14.816667,296.47082 -1e-6,-3.1761 c 1e-6,-0.26348 -0.264582,-0.79265 -0.529166,-1.05723 l -3.175,-3.175 c -0.264583,-0.26459 -0.529166,-0.79375 -0.529166,-1.05834 v -5.29166 c 0,-0.26459 -0.264584,-0.52917 -0.529167,-0.52917 H 8.9958334 c -0.2645832,0 -0.5291665,-0.26458 -0.5291667,-0.52917 v -2.11666 c 2e-7,-0.26459 0.2645835,-0.52917 0.5291667,-0.52917 H 12.7 v -5.29167 c 0,0 0,-1.05833 1.058333,-1.05833 1.058333,0 1.058333,1.05833 1.058333,1.05833 v 5.29167 h 4.233333 v -5.29167 c 0,0 0,-1.05833 1.058334,-1.05833 1.058333,0 1.058333,1.05833 1.058333,1.05833 v 5.29167 h 3.704167 c 0.264584,0 0.529168,0.26458 0.529167,0.52917 v 2.11666 c 1e-6,0.26459 -0.264583,0.52917 -0.529167,0.52917 h -1.058332 c -0.264584,0 -0.529167,0.26458 -0.529169,0.53715 l 2e-6,5.28368 c 0,0.26459 -0.264583,0.79375 -0.529167,1.05834 l -3.175,3.175 c -0.264583,0.26458 -0.529167,0.79375 -0.529168,1.06287 l 1e-6,3.17046 c 0,0.26458 -0.264583,0.52917 -0.529167,0.52917 h -3.174999 c -0.264584,0 -0.529167,-0.26459 -0.529167,-0.52917"
       id="path14"
       inkscape:connector-curvature="0"
       sodipodi:nodetypes="cccccccccccccsccccscccccccccccccccc" />
    <path
       style="fill:#000000;stroke-width:2.11666656"
       d="m 14.816667,252.54999 -1e-6,3.1761 c 1e-6,0.26348 -0.264582,0.79265 -0.529166,1.05723 l -3.175,3.175 c -0.264583,0.26459 -0.529166,0.79375 -0.529166,1.05834 v 5.29166 c 0,0.26459 -0.264584,0.52917 -0.529167,0.52917 H 8.4666672 c -0.264583,0 -0.529166,0.26458 -0.529167,0.52917 v 2.11666 c 1e-6,0.26459 0.264584,0.52917 0.529167,0.52917 H 25.399999 c 0.264585,0 0.529168,-0.26458 0.529168,-0.52917 v -2.11666 c 0,-0.26459 -0.264583,-0.52917 -0.529168,-0.52917 H 23.8125 c -0.264583,0 -0.529167,-0.26458 -0.529169,-0.53715 l 2e-6,-5.28368 c 0,-0.26459 -0.264583,-0.79375 -0.529166,-1.05834 l -3.175,-3.175 c -0.264584,-0.26458 -0.529168,-0.79375 -0.529168,-1.06287 v -3.17046 c 0,-0.26458 -0.264582,-0.52917 -0.529167,-0.52917 h -3.174998 c -0.264584,0 -0.529167,0.26459 -0.529167,0.52917"
       id="path14-6"
       inkscape:connector-curvature="0"
       sodipodi:nodetypes="ccccccccccccccccccccccccc" />
  </g>
</svg>
