<?xml version="1.0" encoding="UTF-8" standalone="no"?>

<svg xmlns="http://www.w3.org/2000/svg" version="1.1" viewBox="40 12 130.10678 235.47827">
	<style>
		path {
			fill: #888;
			stroke: #333;
			stroke-width: 1;
			transition: all 500ms 0s;
		}

		path.status-owned , g.status-owned path {
			fill: #5c5;
		}
		
		path.status-enemy , g.status-enemy path {
			fill: #c55;
		}
		
		path.button:not(.disabled) , g.button:not(.disabled) path {
			-webkit-filter: brightness( 160% ) ;
			filter: brightness( 160% ) ;
		}
		
		path.button:not(.disabled):hover , g.button:not(.disabled):hover path {
			-webkit-filter: brightness( 240% ) ;
			filter: brightness( 240% ) ;
			filter: url('#brightness') ;
		}
	</style>
	
	<defs>
		<filter id="brightness">
			<feComponentTransfer>
				<feFuncR type="linear" slope="5"/>
				<feFuncG type="linear" slope="5"/>
				<feFuncB type="linear" slope="5"/>
			</feComponentTransfer>
		</filter>
	</defs>
	
	<path button="dumnonia" hint="Dumnonia province" d="m 95.779168,232.8157 c -1.307618,-3.94488 -0.831246,-8.49092 -2.584097,-12.23257 -4.301389,-1.32564 -12.818176,-3.0915 -13.22032,3.72178 -5.454636,-1.99273 -3.480285,7.33042 -8.667095,8.89557 -3.832513,0.23015 -4.840879,8.43105 -9.553877,7.782 -6.189464,2.08702 -2.568361,4.11629 0.856318,2.95671 2.808859,4.57864 4.703812,2.34217 5.352571,-2.17178 1.33396,3.32716 3.881094,-3.51694 6.148217,-2.28955 5.849721,-0.58659 8.420532,0.0854 12.420933,3.34975 3.531131,-0.5912 3.990952,-4.39928 4.2291,-6.8634 0.648039,-2.1315 3.366663,-2.15593 5.01825,-3.14851 z"/>
	<path button="durotriges" hint="Durotriges province" d="m 113.85021,233.63591 c -1.13785,-2.73849 -0.48885,-6.98246 -4.39208,-7.16139 -3.27662,-0.3986 -4.2935,-3.96477 -7.83716,-4.51869 -1.847474,-2.11814 -8.756712,-2.07153 -7.737983,-0.26145 0.602974,3.70584 0.941573,7.50468 1.896181,11.12132 3.886392,-4.20274 11.715892,5.66768 10.160002,2.57528 3.13877,-0.14192 9.78821,1.27287 6.74687,-1.95792 1.33062,-0.98202 0.0958,1.85212 1.16417,0.20285 z"/>
	<g button="belgae" hint="Belgae province">
		<path d="m 126.4532,232.47174 c 0.47868,-3.00525 2.3685,-6.80575 0.89566,-9.48714 -2.77449,-0.81683 -6.15163,0.2418 -9.07289,-1.02176 -5.84061,-0.6466 -9.11463,-5.85548 -13.98604,-8.39999 -4.19655,1.64893 -8.43194,7.49656 -1.88579,8.82162 3.51363,0.39412 4.02021,4.28168 7.55798,4.27245 4.11319,-0.43168 2.07257,6.83374 4.61167,6.54119 2.69353,0.39418 10.91308,-0.0262 6.54364,-3.92783 1.96253,0.89978 3.01735,3.79744 5.33577,3.20146 z"/>
		<path d="m 123.12827,232.50702 c -7.23793,0.0795 -1.0044,6.37322 1.66236,2.99522 3.29138,-0.56961 -0.50568,-2.50333 -1.66236,-2.99522 z"/>
	</g>
	<path button="cantiaci" hint="Cantiaci province" d="m 146.685,218.13133 c -3.07816,-0.44392 -5.37934,3.69799 -3.60326,6.41236 1.41666,3.02851 3.14099,5.88202 3.3916,9.33034 5.83596,-2.28085 8.9685,-2.51841 12.67098,-6.17734 5.57858,-1.42429 5.75181,-10.36812 -1.72605,-6.35509 -1.94805,-0.29291 -3.11177,-3.16661 -6.00604,-1.59632 5.78072,-2.74682 -3.54598,-0.92298 -4.72723,-1.61395 z"/>
	<path button="regnenses" hint="Regnenses province" d="m 144.38313,218.8016 c -3.46337,-2.58523 -7.66798,0.40699 -11.45646,-1.11125 -3.79086,-1.11721 -5.99547,0.887 -5.65993,4.69001 1.50559,2.75209 -0.15351,6.87115 -0.81354,10.09138 5.53345,3.17646 12.46846,-3.09325 18.85346,2.11936 2.4196,-1.80968 -0.33875,-6.08923 -1.53596,-8.39943 -1.12112,-2.34722 -2.35886,-5.83848 0.61243,-7.39007 z"/>
	<path button="trinovantes" hint="Trinovantes province" d="m 147.49639,198.11119 c 1.40102,6.30624 2.273,12.7996 4.8066,18.78541 5.42326,1.60278 5.40468,-6.43324 2.44299,-4.7625 4.41692,-0.51537 10.40107,-2.91677 4.85069,-4.68312 3.94997,0.56744 7.793,-2.19954 9.20879,-8.92291 3.46903,-5.39431 -2.53226,-2.46848 -5.6281,-1.86327 -5.18259,1.51153 -10.42701,0.88502 -15.68097,1.44639 z"/>
	<path button= "dobunni" hint="Dobunni province" d="m 108.76139,216.6232 c 4.08945,-2.87109 9.53393,-2.88391 13.70542,-5.56507 -1.64306,-3.07343 1.75065,-5.74 2.62073,-8.4195 0.18897,-2.90377 -4.47142,-4.1084 -5.46551,-6.98912 -1.86717,-4.23446 -4.80926,0.23917 -7.3854,1.26151 -3.50643,2.07225 -7.00072,4.16565 -10.46024,6.31544 -0.0142,2.82632 5.9835,2.80341 4.09849,6.83224 7.45086,-4.5489 -6.392302,4.21899 1.67807,5.5794 0.46402,0.25267 0.82657,0.62973 1.20844,0.9851 z"/>
	<path button="atrebates" hint="Atrebates province" d="m 128.41111,217.9373 c -3.67382,-0.71572 -3.7769,-5.14661 -6.13833,-7.46124 -0.67549,2.39143 -5.31786,2.40546 -7.57795,3.61943 -2.72132,0.63421 -8.37541,2.27055 -3.58683,4.72675 4.40226,2.97763 10.05226,4.50467 15.36284,3.64827 1.81532,1.42191 0.4438,-4.33663 1.94027,-4.53321 z"/>
	<path button="catuvellauni" hint="Catuvellauni province" d="m 141.14639,193.26049 c -1.78421,4.22187 -6.80574,5.58786 -10.66377,7.46538 -2.76054,1.49418 -6.39096,0.95365 -6.70287,4.64006 -2.32495,2.28543 -2.17488,5.27247 0.12463,7.50019 1.03274,2.27465 2.60042,5.86382 5.55403,4.72491 3.80227,-0.10746 7.51206,1.19011 11.25583,-0.0153 3.32245,0.92086 6.35149,1.21695 9.06638,-0.29086 4.8882,0.15182 -0.4829,-5.84459 -0.14073,-8.94356 -1.01765,-3.41972 -1.04952,-7.47836 -2.58615,-10.53233 -2.03771,-1.44415 -4.24321,-2.64641 -5.90735,-4.54845 z"/>
	<path button="iceni" hint="Iceni province" d="m 153.52007,182.63306 c -2.08018,4.10843 -4.719,4.41936 -7.91104,1.24354 -3.5081,1.83492 0.37358,7.25593 -3.89819,8.3432 -1.10793,2.79253 4.08486,4.05953 5.78555,5.89139 5.93033,-0.44147 11.98487,-0.11026 17.76419,-1.95312 7.15882,0.47568 4.90035,-8.35278 0.40385,-10.80862 -3.5752,-1.95885 -8.10949,-2.42604 -12.14436,-2.71639 z"/>
	
	<g area="far-away" hint="Lands without news">
		<path d="m 82.638195,31.485418 c -2.588875,3.142934 -0.412848,6.108736 -3.122083,6.473472 1.546637,3.509747 0.100014,4.062087 -3.289639,3.589514 1.996595,2.962272 1.356628,5.365505 -1.128889,4.806597 1.798207,1.583078 7.276858,9.34124 2.731852,4.623859 -5.53696,-2.890057 3.447331,4.515601 -2.750453,0.03741 -1.571602,2.447358 -4.01727,-3.609238 -2.759524,2.508942 0.05969,1.601732 -3.536702,-5.991375 -2.848695,1.199444 2.320347,0.834035 -2.747402,4.972245 3.448417,6.0325 -2.608004,1.51121 -5.411972,-4.785622 -4.894791,2.337139 -0.412398,4.641071 9.616999,-0.13088 2.387797,2.973209 -2.003749,2.321139 7.365955,3.582675 0.931418,2.062965 -3.365048,2.657788 4.693508,5.502126 -1.925743,3.730354 -2.343712,2.16841 4.077815,4.605528 -1.69869,2.792931 -3.907412,4.962632 4.052344,2.359959 -1.124814,5.40946 0.289684,1.087865 -9.222305,1.685976 -2.238857,2.980665 4.87628,-0.09022 8.334776,0.160302 1.629669,0.533177 -4.476499,2.179707 6.294936,7.287684 7.15888,1.063699 1.663068,-1.436766 7.057024,-5.48775 1.512562,-5.371598 6.47065,0.577472 -1.12406,5.124258 -1.631645,8.153476 0.205263,0.829056 -0.67316,2.274079 -2.654605,4.105552 -0.385109,2.490171 -3.284683,5.288099 0.388055,3.051528 -1.828173,4.057291 -0.540983,3.396993 -3.069166,8.175627 2.048772,1.5472 0.247263,6.25354 -0.904579,10.29716 -2.018324,3.30189 -1.383894,9.25261 2.515879,4.30801 -1.7231,-3.56108 5.449276,-9.15077 2.401547,-13.38809 -2.319192,-3.31693 11.956461,-11.904491 3.598333,-5.582707 -4.463296,2.745787 -0.945337,11.206107 0.05293,4.982987 2.515385,2.58393 -0.04032,-4.284044 1.896181,1.8609 3.195721,-1.31086 1.75065,-9.993149 3.502468,-6.480456 -1.000094,6.468496 -0.215378,0.726466 1.25969,3.447996 6.877037,4.75481 -5.360833,-2.701825 -2.533122,5.17696 -1.625157,4.17014 6.278858,7.26702 0.716658,10.76717 -1.725633,3.61487 -6.349664,9.7027 -5.141736,10.78618 -2.856823,-5.36614 -0.02042,5.04506 1.216403,6.84498 2.972534,3.42655 -1.979131,-7.82304 3.757764,-3.60825 4.038651,7.09827 5.249051,0.76746 5.512153,-0.48507 3.307918,3.78961 6.816104,1.97453 11.332986,-0.65265 -0.430211,-3.98361 13.568514,0.36272 3.942294,-0.21165 -0.40012,1.26884 -4.588278,6.22959 -5.573891,9.92187 2.944746,4.97459 3.870472,9.26644 6.058961,12.18848 3.64564,-6.99284 6.95962,0.69733 1.24424,3.50477 -2.47894,5.24393 5.76011,3.50323 0.24624,6.16134 -5.621175,4.22641 8.04597,11.479 0.23191,8.01129 -3.243172,-6.9993 -2.34888,1.83708 -2.51266,1.90951 -1.752273,-4.46494 -9.621689,-1.93474 -11.050465,-1.72807 -3.043555,2.68405 -6.863385,-7.68853 -9.683067,-2.17828 -4.862238,1.42128 4.33637,3.88706 2.632577,7.51459 -3.097118,2.41945 -9.285873,6.83309 -2.725208,6.05013 2.97651,-6.83982 8.828453,1.8097 5.392205,4.01674 3.270341,3.71702 -2.957076,11.21154 -8.490178,11.53732 -3.338763,2.77198 -5.1449,1.9339 -7.88361,3.81201 -4.273178,1.0527 2.999237,3.65087 -0.713001,5.25781 3.018068,0.94414 2.888051,-0.0919 1.772709,1.30528 2.059787,4.60435 5.871006,-2.38601 8.784166,-0.68791 4.255573,0.18244 1.722888,7.32577 7.281512,3.30003 3.306442,2.31525 8.701927,9.81957 13.212386,2.90455 4.169524,1.17188 9.966814,-5.07029 5.205784,-7.78758 -4.687872,-1.12912 -1.03321,-4.09313 1.70303,-5.16115 3.57743,-2.4798 7.87027,-4.02292 10.96187,-7.12002 3.16808,0.85498 3.71498,4.92716 6.70119,6.37347 1.65541,3.90741 4.73068,1.5758 7.80506,0.43364 3.98615,-1.92646 8.78574,-3.5782 10.29403,-8.13885 4.30818,-1.12883 0.26765,-6.7893 4.1275,-8.47548 9.13309,-4.90554 2.68261,-14.71836 -3.10444,-19.26167 -5.04743,-0.65531 -8.11808,-0.76372 -1.12898,-1.19365 3.72822,2.62943 10.0035,7.11651 4.73613,-0.74663 -4.90567,-5.54519 1.89923,-8.52694 -4.21569,-11.87979 -0.57612,-7.68402 -9.90488,-8.02695 -12.62063,-13.6084 -0.83768,-5.47036 -2.78176,-10.59258 -3.52972,-15.89845 2.19286,-6.14818 -4.80208,-8.08976 -5.99404,-13.14072 -3.75203,-0.55006 -7.76803,-8.265192 -11.58716,-4.42304 -1.96478,3.81187 -17.091579,-4.292547 -7.57873,-0.6955 4.40765,-1.65482 7.86993,-4.357148 12.34874,-6.00569 -3.5117,-3.122885 -3.54942,-6.300941 -9.12965,-2.7432 3.86906,-3.043877 10.36936,-1.655868 11.95912,-7.619986 2.81255,-4.731834 6.26922,-8.912812 7.02653,-14.753179 4.21273,-3.171912 6.18572,-10.841852 -0.15619,-12.393072 -5.0388,0.942682 -12.12077,0.732276 -17.35565,-1.498817 -3.52152,1.924182 -9.485407,1.351531 -11.455053,4.137141 -2.06861,2.510634 -7.568576,0.631503 -1.85464,0.218473 5.383474,-3.760187 0.923265,-5.597429 -3.192504,-1.436866 3.251042,-5.971498 6.871468,-0.30175 8.801806,-5.494514 4.074111,-1.901168 -9.593696,-1.258127 -5.719115,-2.395466 4.845129,1.06619 3.591078,-4.526802 9.973056,-6.572891 4.45106,-3.471923 8.84648,-6.517688 8.62711,-11.848663 1.38709,-3.46296 -6.52748,-2.191252 -5.31152,-0.920784 -3.46267,-0.786674 -7.668196,0.188034 -10.592994,0.650678 -2.85813,-0.19904 -5.943728,4.418245 -4.129106,-0.141292 -2.986516,-2.894036 -5.690137,6.665138 -3.915456,-0.663993 -2.495911,-0.592206 -0.51604,1.657585 -3.157739,-1.66434 l -0.943681,-0.264584 0,1.5e-5 z M 72.548751,86.915627 c -2.019377,0.921168 -2.908727,3.622907 -0.493889,0.64382 l 0.493889,-0.64382 z m 2.681111,16.942153 c -0.370118,5.26728 5.629326,7.01659 0,0 z m -1.243542,4.81542 c -5.734685,1.29418 0.443106,11.52379 1.75507,5.67091 -0.961862,-1.34173 0.08148,-4.14104 -1.75507,-5.67091 z"/>
		<path d="m 84.507918,142.65452 c -2.812551,-0.14173 -9.042714,9.16969 -5.211414,8.10959 2.034221,0.30029 6.321111,-3.56689 4.916689,-5.71609 -0.601946,-0.72398 0.881857,-1.81954 0.294725,-2.3935 z"/>
		<path d="m 78.810556,107.35028 c -1.637301,2.04315 1.077948,0.91464 0,0 z"/>
		<path d="m 61.462709,102.39375 c -3.55637,0.9466 -6.428193,2.98976 -5.548602,6.48465 5.307183,-6.59271 0.700069,2.27503 3.299643,2.33478 5.299956,-2.28863 1.964456,-3.98465 2.248959,-8.81943 z m 5.353403,5.90021 c -1.253157,1.63636 -0.302548,3.5227 0,0 z"/>
		<path d="m 61.60382,97.331392 c -3.664379,1.740108 -1.893212,6.166368 0,0 z"/>
		<path d="m 67.759792,97.313753 c -3.105319,2.403489 -8.167587,6.928257 -4.021667,8.598957 0.697611,-2.80765 4.475365,-5.85411 4.021667,-8.598957 z"/>
		<path d="m 68.218403,95.347017 c -1.795342,2.199295 1.097427,2.06833 0,0 z"/>
		<path d="m 58.375903,91.448822 c -1.330621,1.107451 0.0609,1.540423 0,0 z"/>
		<path d="m 53.366458,85.725002 c -4.626497,0.312872 -2.829306,4.694657 -0.737717,0.83846 0.360203,-0.371413 1.740617,0.01497 0.737717,-0.83846 z m 6.588126,1.957917 c 1.40878,1.85481 3.06221,-0.111105 0,-1.4e-5 l 0,1.4e-5 z"/>
		<path d="m 57.970209,82.347155 c -6.265738,2.643844 -1.400356,4.736242 0,0 z m 4.683125,1.534583 c -2.971284,1.135403 -3.974858,2.39618 -0.493889,4.101042 5.573022,-1.141947 -5.07527,4.930197 1.89618,2.734014 -3.267382,1.169845 -8.22693,2.729004 -1.340555,2.354792 3.484759,-1.18024 5.366995,-0.250893 5.609167,-2.187223 3.293115,-0.896699 -4.551548,-4.592503 -5.670903,-7.002625 z"/>
		<path d="m 61.409792,78.572433 c -0.841392,0.891314 1.186236,0.106296 0,0 z"/>
		<path d="m 41.389653,77.611113 c -1.446327,-0.06415 0.06811,2.225675 0,0 z"/>
		<path d="m 60.598403,72.848613 c -5.877018,1.918011 4.694984,5.644939 0,0 z m 2.70757,3.175 c -2.298537,0.520266 -0.284667,4.232072 0,0 z"/>
		<path d="m 44.7675,71.728544 c -4.54561,3.832188 -0.05435,5.573127 0,0 z m 12.991042,0.599722 c -3.307834,0.57356 1.981155,0.571641 0,0 z"/>
		<path d="m 46.892986,71.005349 c -1.363966,-0.06797 0.184971,2.033843 0,0 z"/>
		<path d="m 62.565139,70.114585 c -2.139634,1.281577 1.060834,0.786644 0,0 z"/>
		<path d="m 65.669584,66.092918 c -0.185005,2.839032 2.829498,0.08503 0,0 z"/>
		<path d="m 66.242848,61.083474 c -2.744335,3.231396 -0.440005,7.127127 0.03529,0.78493 l 0.155702,-0.449659 -0.19098,-0.335271 -1.4e-5,0 z"/>
		<path d="m 66.745556,59.116738 c -1.248125,1.331259 0.04183,3.258473 0,0 z"/>
		<path d="m 49.080208,54.95396 c -3.551944,0.05746 -6.156074,1.587486 -2.911356,5.363808 -1.999158,2.456398 -0.75013,13.67761 1.076912,9.161817 0.47671,-3.415975 0.621405,-5.943504 1.913819,-8.616597 -0.945487,-2.784839 4.692351,-5.413491 -0.07937,-5.909028 z m 13.061598,0.493889 c -3.351595,2.132838 0.37476,8.955998 -4.198056,3.289639 -1.749574,-0.564558 0.802728,5.416231 -2.69875,2.28425 -1.797219,1.726113 2.26866,4.972414 3.61709,2.864697 3.319763,2.101206 -2.15672,2.858487 2.530063,5.4344 0.446464,-0.136099 3.822587,3.188395 3.915834,-0.432153 3.336222,2.355557 -0.101253,0.67233 -0.264022,5.109053 3.808586,-2.294151 8.073788,-7.143254 0.819647,-6.617178 -3.274298,-1.172847 -1.534217,-6.208228 -2.196042,-9.68375 -1.155204,-0.08958 -0.825737,-1.592109 -1.525764,-2.248958 z"/>
		<path d="m 49.441806,53.701599 c -2.014257,1.314963 1.347297,0.622988 0,0 z"/>
		<path d="m 49.000833,52.361043 c -2.081008,0.3568 1.111849,1.389205 0,0 z"/>
		<path d="m 52.255208,48.947918 c -3.008785,1.203889 0.793629,1.597787 0,0 z"/>
		<path d="m 64.249653,33.337501 c -2.859704,2.333856 -9.052602,6.268401 -8.819445,6.932112 -0.301591,0.01222 -5.195629,-0.211656 -4.252279,4.436234 0.204332,1.842587 -1.562808,2.388836 3.178249,4.067237 -2.693159,0.630256 -5.356112,5.656411 -0.816844,4.480716 2.328522,-2.689132 2.715421,-2.313506 3.663569,-3.353354 2.703136,-0.597724 5.57979,-3.394351 4.744833,-7.664097 1.992825,0.33018 5.453772,-2.616959 0.791766,-0.834478 1.114422,-2.848658 4.026436,-4.477913 1.510151,-8.06437 z"/>
		<path d="m 113.28577,27.675417 c -3.28262,-0.250732 0.31173,5.356361 0.29104,0.05292 l -0.29104,-0.05292 z"/>
		<path d="m 107.0857,24.570973 c -3.60272,4.161528 5.61536,5.167686 0.38705,0.21306 l -0.38705,-0.21306 z m 6.61458,2.054931 c -2.79778,0.303849 0.7223,1.467587 0,0 z m -3.03389,0.493888 c -1.76624,0.463103 0.35382,1.970798 0,0 z m -0.75847,1.137709 c -2.10894,-0.197849 -0.30678,1.507086 0,0 z"/>
		<path d="m 117.8807,18.820695 c -2.7137,2.862041 2.87994,2.582882 0.29986,0.996597 0.93179,-0.539653 -0.37482,-0.416109 -0.29986,-0.996597 z"/>
		<path d="m 109.67861,18.538473 c -4.89485,1.344983 -1.11608,8.168966 -0.79373,2.786944 -0.80942,5.47391 3.96546,2.397951 6.09554,4.87968 1.24547,-3.851146 -3.67338,-2.00451 -3.41442,-4.421069 2.16448,-0.421779 -0.60327,-2.892963 -1.88739,-3.245555 z m 5.61799,2.196041 c -3.80526,0.258703 0.0812,3.549509 0,0 z m 1.17299,3.377848 c -3.19299,0.310812 0.46621,3.124128 0,0 z"/>
		<path d="m 111.42486,17.189098 c -0.8608,4.469984 4.24292,0.805396 0,0 z m 2.27542,1.023055 c -1.00475,0.790658 0.94938,1.915676 0,0 z"/>
		<path d="m 113.48861,13.140973 c -4.33897,1.500261 4.87438,4.64759 -0.24694,0.767291 l 0.22048,-0.264583 0.0265,-0.502708 10e-6,0 z m 7.68174,1.693333 c -2.63195,1.969473 -2.25584,-0.861466 -3.97757,2.910417 0.53844,-1.619281 4.40391,-1.148277 3.97757,-2.910417 z m -4.91243,1.455208 c -2.11323,1.872114 0.50497,5.010234 0,0 z"/>
		<path d="m 114.82917,12.311945 c -1.49158,0.931168 0.28109,2.70564 0,0 z m 6.88798,0.264583 c -1.78977,1.19313 0.49155,1.00665 0,0 z"/>
	</g>
</svg>